<?xml version="1.0" encoding="utf-8"?>
<!-- Generator: Adobe Illustrator 22.1.0, SVG Export Plug-In . SVG Version: 6.00 Build 0)  -->
<svg version="1.1" id="Layer_1" xmlns="http://www.w3.org/2000/svg" xmlns:xlink="http://www.w3.org/1999/xlink" x="0px" y="0px"
	 viewBox="0 0 1666 788.3" style="enable-background:new 0 0 1666 788.3;" xml:space="preserve">
<style type="text/css">
	.st0{fill:url(#SVGID_1_);}
	.st1{fill:url(#SVGID_2_);}
	.st2{opacity:0.57;fill:url(#SVGID_3_);enable-background:new    ;}
	.st3{opacity:0.57;fill:url(#SVGID_4_);enable-background:new    ;}
	.st4{opacity:0.57;fill:#2AF9F2;enable-background:new    ;}
	.st5{opacity:0.57;fill:url(#SVGID_5_);enable-background:new    ;}
	.st6{opacity:0.57;fill:url(#SVGID_6_);enable-background:new    ;}
	.st7{fill:url(#SVGID_7_);}
	.st8{opacity:0.57;fill:url(#SVGID_8_);enable-background:new    ;}
	.st9{opacity:0.57;fill:url(#SVGID_9_);enable-background:new    ;}
</style>
<g>
	
		<linearGradient id="SVGID_1_" gradientUnits="userSpaceOnUse" x1="3" y1="369.8" x2="1679" y2="369.8" gradientTransform="matrix(1 0 0 1 0 20)">
		<stop  offset="0" style="stop-color:#103AC6"/>
		<stop  offset="1" style="stop-color:#075BFF"/>
	</linearGradient>
	<path class="st0" d="M3-5.7v794c0,0,271.8,0,496,0c219.4,0,1180,0,1180,0v-797L3-5.7z"/>
	
		<linearGradient id="SVGID_2_" gradientUnits="userSpaceOnUse" x1="-179.2901" y1="435.2532" x2="318.4241" y2="-179.3718" gradientTransform="matrix(1 0 0 1 0 20)">
		<stop  offset="0" style="stop-color:#103AC6"/>
		<stop  offset="1" style="stop-color:#075BFF"/>
	</linearGradient>
	<path class="st1" d="M-63.9-141.9l413.3,443.2c20.7,22.2,19.5,57-2.7,77.7l-65.8,61.4c-22.2,20.7-57,19.5-77.7-2.7L-210.2-5.5
		c-20.7-22.2-19.5-57,2.7-77.7l65.8-61.4C-119.5-165.3-84.7-164.1-63.9-141.9z"/>
	
		<linearGradient id="SVGID_3_" gradientUnits="userSpaceOnUse" x1="581.419" y1="182.4" x2="690.419" y2="182.4" gradientTransform="matrix(1 0 0 1 0 20)">
		<stop  offset="0" style="stop-color:#5179FE"/>
		<stop  offset="1" style="stop-color:#075BFF"/>
	</linearGradient>
	<circle class="st2" cx="635.9" cy="202.4" r="54.5"/>
	
		<linearGradient id="SVGID_4_" gradientUnits="userSpaceOnUse" x1="636.4191" y1="214.2" x2="636.4191" y2="151.672" gradientTransform="matrix(1 0 0 1 0 20)">
		<stop  offset="0" style="stop-color:#5179FE"/>
		<stop  offset="1" style="stop-color:#075BFF"/>
	</linearGradient>
	<circle class="st3" cx="636.4" cy="202.9" r="31.3"/>
	<circle class="st4" cx="635.9" cy="202.9" r="7.5"/>
	
		<linearGradient id="SVGID_5_" gradientUnits="userSpaceOnUse" x1="393" y1="589.5" x2="468" y2="589.5" gradientTransform="matrix(1 0 0 1 0 20)">
		<stop  offset="0" style="stop-color:#5179FE"/>
		<stop  offset="1" style="stop-color:#075BFF"/>
	</linearGradient>
	<circle class="st5" cx="430.5" cy="609.5" r="37.5"/>
	
		<linearGradient id="SVGID_6_" gradientUnits="userSpaceOnUse" x1="409.4" y1="589.9" x2="452.4" y2="589.9" gradientTransform="matrix(1 0 0 1 0 20)">
		<stop  offset="0" style="stop-color:#5179FE"/>
		<stop  offset="1" style="stop-color:#075BFF"/>
	</linearGradient>
	<circle class="st6" cx="430.9" cy="609.9" r="21.5"/>
	<circle class="st4" cx="430.9" cy="609.9" r="5.2"/>
	
		<linearGradient id="SVGID_7_" gradientUnits="userSpaceOnUse" x1="736.3171" y1="779.1965" x2="971.009" y2="489.3748" gradientTransform="matrix(1 0 0 1 0 20)">
		<stop  offset="0" style="stop-color:#103AC6"/>
		<stop  offset="1" style="stop-color:#075BFF"/>
	</linearGradient>
	<path class="st7" d="M807.2,789.3L625.9,594.9c-20.7-22.2-19.5-57,2.7-77.7l65.8-61.4c22.2-20.7,57-19.5,77.7,2.7l309,330.8
		L807.2,789.3L807.2,789.3z"/>
</g>
<linearGradient id="SVGID_8_" gradientUnits="userSpaceOnUse" x1="1174.3" y1="181.4" x2="1360.7" y2="181.4" gradientTransform="matrix(1 0 0 1 0 20)">
	<stop  offset="0" style="stop-color:#5179FE"/>
	<stop  offset="1" style="stop-color:#075BFF"/>
</linearGradient>
<circle class="st8" cx="1267.5" cy="201.4" r="93.2"/>
<linearGradient id="SVGID_9_" gradientUnits="userSpaceOnUse" x1="1268.4" y1="235.9" x2="1268.4" y2="128.9" gradientTransform="matrix(1 0 0 1 0 20)">
	<stop  offset="0" style="stop-color:#5179FE"/>
	<stop  offset="1" style="stop-color:#075BFF"/>
</linearGradient>
<circle class="st9" cx="1268.4" cy="202.4" r="53.5"/>
<circle class="st4" cx="1267.5" cy="202.4" r="7.5"/>
</svg>
