<?xml version="1.0" encoding="utf-8"?>
<!-- Generator: Adobe Illustrator 22.1.0, SVG Export Plug-In . SVG Version: 6.00 Build 0)  -->
<svg version="1.1" id="Layer_1" xmlns="http://www.w3.org/2000/svg" xmlns:xlink="http://www.w3.org/1999/xlink" x="0px" y="0px"
	 viewBox="0 0 1666 788.3" style="enable-background:new 0 0 1666 788.3;" xml:space="preserve">
<style type="text/css">
	.st0{fill:url(#SVGID_1_);}
	.st1{fill:url(#SVGID_2_);}
	.st2{opacity:0.57;fill:url(#SVGID_3_);enable-background:new    ;}
	.st3{opacity:0.57;fill:url(#SVGID_4_);enable-background:new    ;}
	.st4{opacity:0.57;fill:#2AF9F2;enable-background:new    ;}
	.st5{opacity:0.57;fill:url(#SVGID_5_);enable-background:new    ;}
	.st6{opacity:0.57;fill:url(#SVGID_6_);enable-background:new    ;}
	.st7{fill:url(#SVGID_7_);}
	.st8{opacity:0.57;fill:url(#SVGID_8_);enable-background:new    ;}
	.st9{opacity:0.57;fill:url(#SVGID_9_);enable-background:new    ;}
</style>
<g>
	
		<linearGradient id="SVGID_1_" gradientUnits="userSpaceOnUse" x1="3" y1="418.2" x2="1679" y2="418.2" gradientTransform="matrix(1 0 0 -1 0 808)">
		<stop  offset="0" style="stop-color:#103AC6"/>
		<stop  offset="1" style="stop-color:#075BFF"/>
	</linearGradient>
	<path class="st0" d="M3-5.7v794c0,0,271.8,0,496,0c219.4,0,1180,0,1180,0v-797L3-5.7z"/>
	
		<linearGradient id="SVGID_2_" gradientUnits="userSpaceOnUse" x1="-179.2901" y1="352.7468" x2="318.4241" y2="967.3718" gradientTransform="matrix(1 0 0 -1 0 808)">
		<stop  offset="0" style="stop-color:#103AC6"/>
		<stop  offset="1" style="stop-color:#075BFF"/>
	</linearGradient>
	<path class="st1" d="M-63.9-141.9l413.3,443.2c20.7,22.2,19.5,57-2.7,77.7l-65.8,61.4c-22.2,20.7-57,19.5-77.7-2.7L-210.2-5.5
		c-20.7-22.2-19.5-57,2.7-77.7l65.8-61.4C-119.5-165.3-84.7-164.1-63.9-141.9z"/>
	
		<linearGradient id="SVGID_3_" gradientUnits="userSpaceOnUse" x1="581.4" y1="605.6" x2="690.4" y2="605.6" gradientTransform="matrix(1 0 0 -1 0 808)">
		<stop  offset="0" style="stop-color:#5179FE"/>
		<stop  offset="1" style="stop-color:#075BFF"/>
	</linearGradient>
	<circle class="st2" cx="635.9" cy="202.4" r="54.5"/>
	
		<linearGradient id="SVGID_4_" gradientUnits="userSpaceOnUse" x1="636.4" y1="573.8" x2="636.4" y2="636.328" gradientTransform="matrix(1 0 0 -1 0 808)">
		<stop  offset="0" style="stop-color:#5179FE"/>
		<stop  offset="1" style="stop-color:#075BFF"/>
	</linearGradient>
	<circle class="st3" cx="636.4" cy="202.9" r="31.3"/>
	<circle class="st4" cx="635.9" cy="202.9" r="7.5"/>
	
		<linearGradient id="SVGID_5_" gradientUnits="userSpaceOnUse" x1="393" y1="198.5" x2="468" y2="198.5" gradientTransform="matrix(1 0 0 -1 0 808)">
		<stop  offset="0" style="stop-color:#5179FE"/>
		<stop  offset="1" style="stop-color:#075BFF"/>
	</linearGradient>
	<circle class="st5" cx="430.5" cy="609.5" r="37.5"/>
	
		<linearGradient id="SVGID_6_" gradientUnits="userSpaceOnUse" x1="409.4" y1="198.1" x2="452.4" y2="198.1" gradientTransform="matrix(1 0 0 -1 0 808)">
		<stop  offset="0" style="stop-color:#5179FE"/>
		<stop  offset="1" style="stop-color:#075BFF"/>
	</linearGradient>
	<circle class="st6" cx="430.9" cy="609.9" r="21.5"/>
	<circle class="st4" cx="430.9" cy="609.9" r="5.2"/>
	
		<linearGradient id="SVGID_7_" gradientUnits="userSpaceOnUse" x1="966.934" y1="81.4798" x2="1223.2863" y2="398.0499" gradientTransform="matrix(1 0 0 -1 0 808)">
		<stop  offset="0" style="stop-color:#103AC6"/>
		<stop  offset="1" style="stop-color:#075BFF"/>
	</linearGradient>
	<path class="st7" d="M790.9,434.9c-20.7-22.2-19.5-57,2.7-77.7l65.8-61.4c22.2-20.7,57-19.5,77.7,2.7L1390,788.3h-256"/>
</g>
<linearGradient id="SVGID_8_" gradientUnits="userSpaceOnUse" x1="1081.1001" y1="606.6" x2="1453.8999" y2="606.6" gradientTransform="matrix(1 0 0 -1 0 808)">
	<stop  offset="0" style="stop-color:#5179FE"/>
	<stop  offset="1" style="stop-color:#075BFF"/>
</linearGradient>
<circle class="st8" cx="1267.5" cy="201.4" r="186.4"/>
<linearGradient id="SVGID_9_" gradientUnits="userSpaceOnUse" x1="1269.3" y1="497.6" x2="1269.3" y2="711.6" gradientTransform="matrix(1 0 0 -1 0 808)">
	<stop  offset="0" style="stop-color:#5179FE"/>
	<stop  offset="1" style="stop-color:#075BFF"/>
</linearGradient>
<circle class="st9" cx="1269.3" cy="203.4" r="107"/>
<circle class="st4" cx="1267.5" cy="202.4" r="7.5"/>
</svg>
