<?xml version="1.0" encoding="utf-8"?>
<!-- Generator: Adobe Illustrator 22.1.0, SVG Export Plug-In . SVG Version: 6.00 Build 0)  -->
<svg version="1.1" id="Layer_1" xmlns="http://www.w3.org/2000/svg" xmlns:xlink="http://www.w3.org/1999/xlink" x="0px" y="0px"
	 viewBox="0 0 1666 788.3" style="enable-background:new 0 0 1666 788.3;" xml:space="preserve">
<style type="text/css">
	.st0{fill:url(#SVGID_1_);}
	.st1{fill:url(#SVGID_2_);}
	.st2{opacity:0.57;fill:url(#SVGID_3_);enable-background:new    ;}
	.st3{opacity:0.57;fill:url(#SVGID_4_);enable-background:new    ;}
	.st4{opacity:0.57;fill:#2AF9F2;enable-background:new    ;}
	.st5{opacity:0.57;fill:url(#SVGID_5_);enable-background:new    ;}
	.st6{opacity:0.57;fill:url(#SVGID_6_);enable-background:new    ;}
	.st7{fill:url(#SVGID_7_);}
	.st8{opacity:0.57;fill:url(#SVGID_8_);enable-background:new    ;}
	.st9{opacity:0.57;fill:url(#SVGID_9_);enable-background:new    ;}
</style>
<g>
	
		<linearGradient id="SVGID_1_" gradientUnits="userSpaceOnUse" x1="0.3333" y1="399.6773" x2="1676.3334" y2="399.6773" gradientTransform="matrix(1 0 0 -1 0 788)">
		<stop  offset="0" style="stop-color:#103AC6"/>
		<stop  offset="1" style="stop-color:#075BFF"/>
	</linearGradient>
	<path class="st0" d="M0.3-7.3V787c0,0,271.8,0,496,0c219.4,0,1180,0,1180,0V-10.3L0.3-7.3z"/>
	
		<linearGradient id="SVGID_2_" gradientUnits="userSpaceOnUse" x1="-182.299" y1="333.754" x2="315.4151" y2="948.379" gradientTransform="matrix(1 0 0 -1 0 788)">
		<stop  offset="0" style="stop-color:#103AC6"/>
		<stop  offset="1" style="stop-color:#075BFF"/>
	</linearGradient>
	<path class="st1" d="M-66.9-142.9l413.3,443.2c20.7,22.2,19.5,57-2.7,77.7l-65.8,61.4c-22.2,20.7-57,19.5-77.7-2.7L-213.2-6.5
		c-20.7-22.2-19.5-57,2.7-77.7l65.8-61.4C-122.5-166.3-87.7-165.1-66.9-142.9z"/>
	
		<linearGradient id="SVGID_3_" gradientUnits="userSpaceOnUse" x1="938" y1="402.5" x2="1047" y2="402.5" gradientTransform="matrix(1 0 0 -1 0 788)">
		<stop  offset="0" style="stop-color:#5179FE"/>
		<stop  offset="1" style="stop-color:#075BFF"/>
	</linearGradient>
	<circle class="st2" cx="992.5" cy="385.5" r="54.5"/>
	
		<linearGradient id="SVGID_4_" gradientUnits="userSpaceOnUse" x1="993.045" y1="370.689" x2="993.045" y2="433.217" gradientTransform="matrix(1 0 0 -1 0 788)">
		<stop  offset="0" style="stop-color:#5179FE"/>
		<stop  offset="1" style="stop-color:#075BFF"/>
	</linearGradient>
	<circle class="st3" cx="993" cy="386" r="31.3"/>
	<circle class="st4" cx="993.5" cy="386.5" r="7.5"/>
	
		<linearGradient id="SVGID_5_" gradientUnits="userSpaceOnUse" x1="152" y1="212.5" x2="227" y2="212.5" gradientTransform="matrix(1 0 0 -1 0 788)">
		<stop  offset="0" style="stop-color:#5179FE"/>
		<stop  offset="1" style="stop-color:#075BFF"/>
	</linearGradient>
	<circle class="st5" cx="189.5" cy="575.5" r="37.5"/>
	
		<linearGradient id="SVGID_6_" gradientUnits="userSpaceOnUse" x1="168.375" y1="212.125" x2="211.375" y2="212.125" gradientTransform="matrix(1 0 0 -1 0 788)">
		<stop  offset="0" style="stop-color:#5179FE"/>
		<stop  offset="1" style="stop-color:#075BFF"/>
	</linearGradient>
	<circle class="st6" cx="189.9" cy="575.9" r="21.5"/>
	<circle class="st4" cx="190.2" cy="576.2" r="5.2"/>
	
		<linearGradient id="SVGID_7_" gradientUnits="userSpaceOnUse" x1="733.3484" y1="-10.2218" x2="968.0403" y2="279.5999" gradientTransform="matrix(1 0 0 -1 0 788)">
		<stop  offset="0" style="stop-color:#103AC6"/>
		<stop  offset="1" style="stop-color:#075BFF"/>
	</linearGradient>
	<path class="st7" d="M804.2,788.3L622.9,593.9c-20.7-22.2-19.5-57,2.7-77.7l65.8-61.4c22.2-20.7,57-19.5,77.7,2.7l309,330.8H804.2z
		"/>
</g>
<linearGradient id="SVGID_8_" gradientUnits="userSpaceOnUse" x1="1174.2894" y1="586.5643" x2="1360.6794" y2="586.5643" gradientTransform="matrix(1 0 0 -1 0 788)">
	<stop  offset="0" style="stop-color:#5179FE"/>
	<stop  offset="1" style="stop-color:#075BFF"/>
</linearGradient>
<circle class="st8" cx="1267.5" cy="201.4" r="93.2"/>
<linearGradient id="SVGID_9_" gradientUnits="userSpaceOnUse" x1="1268.4164" y1="532.1675" x2="1268.4164" y2="639.0904" gradientTransform="matrix(1 0 0 -1 0 788)">
	<stop  offset="0" style="stop-color:#5179FE"/>
	<stop  offset="1" style="stop-color:#075BFF"/>
</linearGradient>
<circle class="st9" cx="1268.4" cy="202.4" r="53.5"/>
<circle class="st4" cx="1267.5" cy="202.4" r="7.5"/>
</svg>
