<?xml version="1.0" encoding="utf-8"?>
<!-- Generator: Adobe Illustrator 22.1.0, SVG Export Plug-In . SVG Version: 6.00 Build 0)  -->
<svg version="1.1" id="Capa_1" xmlns="http://www.w3.org/2000/svg" xmlns:xlink="http://www.w3.org/1999/xlink" x="0px" y="0px"
	 viewBox="0 0 512 512" style="enable-background:new 0 0 512 512;" xml:space="preserve">
<style type="text/css">
	.st0{fill:#054FE6;}
</style>
<g transform="translate(0 -1)">
	<g>
		<g>
			<path class="st0" d="M503.4,453.3h-8.5V274.1c0-14.1-11.5-25.6-25.6-25.6h-93.9v-4.3c0-7.1,5.7-12.8,12.8-12.8h68.3
				c16.5,0,29.9-13.4,29.9-29.9s-13.4-29.9-29.9-29.9h-25.6c-7.1,0-12.8-5.7-12.8-12.8s5.7-12.8,12.8-12.8h42.7
				c16.5,0,29.9-13.4,29.9-29.9s-13.5-29.7-30-29.7H345.9c-7.6-18.4-20-34.3-36-46.2c-37.2-28.9-72-40.9-112.6-38.9
				c-21.3,1.5-42.4,4.5-63.2,9c-7.8,1.5-15.5,3.5-23,6.1c-16.4,4.9-31.2,13.8-43.3,25.9C56,54.6,47,69.3,41.2,85.3
				c-2.6,7.4-4.7,15-6.3,22.7l-0.2,1c-1.3,5-3.2,9.8-5.5,14.4c-1.3,2.9-2.7,5.9-3.9,9.2c-1.5,3.7-2.1,7.8-1.7,11.8
				c1.4,6.2,5,11.8,10.1,15.6c1.8,1.7,4.6,4.2,4.7,5.2c-0.3,0.7-0.6,1.3-0.9,1.9c-7.7,16.1-17.1,31.4-28.1,45.5l-0.6,0.7
				c-5.4,5.3-8.5,12.5-8.6,20c1.4,5.8,5.1,10.7,10.2,13.6c2.2,1.6,4.6,2.9,7.1,4.1c2.4,1,4.7,2.4,6.8,4.1c0.4,1.7,0.2,3.5-0.5,5.1
				c-0.9,2-1.9,3.7-2.8,5.2c-2.4,4.2-7.3,12.8,0,18.8c1.2,1.1,3,2.6,4.9,4c-1.3,2.8-1.9,5.9-1.6,9c0.4,3.1,2.1,5.9,4.7,7.7
				c1.5,1.1,3.1,2,4.7,2.9c3.5,2,4.6,2.8,4.9,4c0.2,2.3,0,4.6-0.7,6.7c-0.4,1.8-0.8,3.6-1,5.3c-0.7,6.2,0.1,12.6,2.3,18.4
				c3.3,11.1,13.5,18.8,25.1,19c1.9,0,3.7-0.2,5.6-0.6c18.3-4.4,36.3-9.7,54-16c13.7,8.5,22.5,33.1,24.8,42.5
				c0.9,3.8,4.4,6.5,8.3,6.5l0,0l47.9-0.1v59.9h-8.5c-4.7,0-8.5,3.8-8.5,8.5V479c0,18.8,15.3,34.1,34.1,34.1h256
				c18.8,0,34.1-15.3,34.1-34.1v-17.1C511.9,457.1,508.1,453.3,503.4,453.3z M469.3,265.6c4.7,0,8.5,3.8,8.5,8.5v179.2h-85.3
				c-4.7,0-8.5,3.8-8.5,8.5h-68.3c0-4.7-3.8-8.5-8.5-8.5h-85.3V274.1c0-4.7,3.8-8.5,8.5-8.5H290l0,0l0,0H469.3L469.3,265.6z
				 M356.5,152.5c0.3-16.5-1.5-33-5.3-49h122.4c7.1,0,12.8,5.7,12.8,12.8s-5.7,12.8-12.8,12.8h-42.7c-16.5,0-29.9,13.4-29.9,29.9
				s13.4,29.9,29.9,29.9h25.6c7.1,0,12.8,5.7,12.8,12.8s-5.7,12.8-12.8,12.8h-68.3c-16.5,0-29.8,13.4-29.9,29.9v4.3H312
				c4.6-8.8,10.1-17.2,16.3-25c4-5.3,8.1-10.9,11.9-16.7C350.7,190.6,356.3,171.7,356.5,152.5z M122.2,30.8
				c4.8-1.4,9.8-2.7,15.2-3.8c20-4.4,40.3-7.3,60.8-8.7c36.4-1.8,67.6,9.1,101.2,35.3c11.6,8.7,21,19.9,27.7,32.8h-37.8
				c-4.4-26.2-28.2-44.7-54.8-42.5s-46.9,24.4-46.9,51s20.4,48.8,46.9,51s50.3-16.2,54.8-42.5h44.3c4.2,15.9,6.1,32.3,5.8,48.8
				c-0.1,16.1-4.8,31.9-13.6,45.4c-3.4,5.3-7.2,10.4-11.1,15.7c-7.6,9.4-14.1,19.7-19.4,30.7c-0.1,0.3-0.2,0.6-0.4,0.9
				c-20-52.3-76.1-79.3-117.7-99.3c-5.1-2.4-9.9-4.8-14.5-7.1C123.6,119,121.8,50.9,122.2,30.8z M238.9,103.4h32.9
				c-4.3,16.6-20.3,27.5-37.4,25.3s-29.8-16.7-29.8-33.9s12.8-31.7,29.8-33.9s33.1,8.7,37.4,25.3h-32.9c-4.7,0-8.5,3.8-8.5,8.5
				C230.3,99.6,234.2,103.4,238.9,103.4z M163.2,376.5c-4.1-14.1-11.2-27.2-20.7-38.4c5.7-2,10-3.5,12.1-4.1
				c10.7-3.1,20.8-8,29.8-14.5c3.7-2.9,4.3-8.3,1.3-12s-8.3-4.3-12-1.3c-7.3,5.2-15.5,9.1-24.2,11.5c-2.3,0.7-7.3,2.4-13.8,4.7
				l-13.9,4.8l0,0l0,0c-18.3,6.5-36.8,12.1-55.7,16.7c-5.1,1-10-2.3-11.1-7.4c-1.3-3.3-1.8-6.9-1.5-10.5c0.2-1.3,0.5-2.6,0.8-3.9
				c1.4-4.8,1.6-9.9,0.6-14.8c-1.9-6.4-6.5-11.6-12.6-14.3c0.4-0.7,0.8-1.3,1.3-1.9c1.4-1.8,2.1-4.1,1.7-6.4s-1.5-4.4-3.4-5.7
				c-1.7-1.3-4.3-3.2-6.5-4.9l0.2-0.3c1-1.8,2.2-3.9,3.3-6.2c2.3-4.9,3-10.5,1.9-15.8c-1.7-9-9.8-13.1-15.8-16.1
				c-1.8-0.8-3.6-1.8-5.2-3c-0.7-0.5-1.8-1.4-2.6-2.1c1.4-2.4,2.9-4.7,4.7-6.8l0.5-0.6c11.7-15,21.8-31.2,30-48.4
				c1.8-2.9,2.7-6.3,2.8-9.8c-0.7-7.1-4.4-13.6-10.2-17.8c-1.9-1.8-4.6-4.2-4.7-5.3c0.1-1.2,0.4-2.4,0.9-3.6c1-2.7,2.2-5.4,3.5-8
				c2.8-5.6,5-11.5,6.5-17.6l0.2-0.9c1.5-7,3.4-13.9,5.7-20.6C62.2,77.4,70,64.7,80.1,54c7.1-7.2,15.6-13,24.9-17
				c0.2,28.3,5.5,94.7,50.1,116.8c4.7,2.3,9.6,4.7,14.7,7.2c40.3,19.4,89.8,43.3,108.1,87.6h-47.6c-14.1,0-25.6,11.5-25.6,25.6
				v102.3H163.2z M494.9,478.9c0,9.4-7.6,17.1-17.1,17.1h-256c-9.4,0-17.1-7.6-17.1-17.1v-8.5h93.9c0,4.7,3.8,8.5,8.5,8.5h85.3
				c4.7,0,8.5-3.8,8.5-8.5h93.9L494.9,478.9L494.9,478.9z"/>
			<path class="st0" d="M259,338.4c-2.4,3.4-2,8,1,10.9l10.6,10.6c-2.7,5.1-5,10.4-6.6,16h-15c-4.1,0-7.7,3-8.4,7
				c-1.1,6.3-1.7,12.7-1.7,19.2c0,4.5,0.3,8.9,0.9,13.4c-0.6,1.1-0.9,2.4-0.9,3.7c0,4.7,3.8,8.5,8.5,8.5h141.5l0,0l0,0h63.2
				c4.7,0,8.5-3.8,8.5-8.5c0-1.3-0.3-2.5-0.9-3.7c0.6-4.4,0.9-8.9,0.9-13.4c0-6.4-0.5-12.8-1.7-19.2c-0.7-4.1-4.3-7-8.4-7h-15
				c-1.7-5.5-3.9-10.9-6.6-16l10.6-10.6c2.9-2.9,3.3-7.5,1-10.9c-7.4-10.5-16.5-19.7-27.1-27.1c-3.4-2.4-8-2-10.9,1L392,322.9
				c-5.1-2.7-10.4-5-16-6.6v-15c0-4.1-3-7.7-7-8.4c-12.7-2.2-25.7-2.2-38.3,0c-4.1,0.7-7,4.3-7,8.4v15c-5.5,1.7-10.9,3.9-16,6.6
				L297,312.3c-2.9-2.9-7.5-3.3-10.9-1C275.6,318.7,266.4,327.9,259,338.4z M382.7,410.6h-65.9c-0.8-2.8-1.2-5.6-1.2-8.5
				c0-18.9,15.3-34.1,34.1-34.1c18.9,0,34.1,15.3,34.1,34.1C383.9,405,383.5,407.8,382.7,410.6z M300.2,339.6
				c2.8,2.9,7.3,3.3,10.7,1.1c7-4.6,14.9-7.8,23.1-9.6c3.9-0.9,6.7-4.3,6.7-8.3v-14.2c6.1-0.6,12.2-0.6,18.3,0v14.2
				c0,4,2.8,7.5,6.7,8.3c8.2,1.8,16,5,23.1,9.6c3.4,2.2,7.8,1.7,10.7-1.1l10-10c4.7,3.9,9.1,8.2,12.9,12.9l-10,10
				c-2.8,2.8-3.3,7.3-1.1,10.7c4.6,7,7.8,14.9,9.6,23.1c0.9,3.9,4.3,6.7,8.3,6.7h14.2c0.3,3,0.4,6,0.4,9.1c0,2.8-0.2,5.7-0.4,8.5
				h-43c0.5-2.8,0.7-5.7,0.8-8.5c0-28.3-22.9-51.2-51.2-51.2s-51.2,22.9-51.2,51.2c0,2.9,0.3,5.7,0.8,8.5h-43
				c-0.3-2.9-0.4-5.7-0.4-8.5c0-3.1,0.1-6.1,0.4-9.1h14.2c4,0,7.5-2.8,8.3-6.7c1.8-8.2,5-16,9.6-23.1c2.2-3.4,1.7-7.8-1.1-10.7
				l-10-10c3.9-4.7,8.2-9.1,12.9-12.9L300.2,339.6z"/>
		</g>
	</g>
</g>
</svg>
