<?xml version="1.0" encoding="utf-8"?>
<!-- Generator: Adobe Illustrator 22.1.0, SVG Export Plug-In . SVG Version: 6.00 Build 0)  -->
<svg version="1.1" id="Layer_1" xmlns="http://www.w3.org/2000/svg" xmlns:xlink="http://www.w3.org/1999/xlink" x="0px" y="0px"
	 viewBox="0 0 1366 768" style="enable-background:new 0 0 1366 768;" xml:space="preserve">
<style type="text/css">
	.st0{opacity:0.3;fill:#FDE8CF;enable-background:new    ;}
	.st1{opacity:0.1;fill:#5381F3;enable-background:new    ;}
</style>
<path class="st0" d="M836.7,245.2c-64.3-10.6-123.4-35.9-179.5-62.4c-55.6-26.2-64-103.2-186.4-159.1c-2.5-1.1-5.1-2.1-7.7-2.9
	c-38.6-11.3-81.3-20.3-118-4.7c-19.5,7.3-40.2,31.7-53.5,65.4c-17.6,44.7-15.2,94.6,5.5,138c1.9,4,3.7,7.9,5.6,12.3
	c5.8,13.7,54.4,32.5,65.2,46.4c1.3,1.6,2.6,3.1,4,4.6c55.9,60.1-47.4,90.9-88.8,128.4c-19.8,17.8-42.1,34.5-58.1,54.2
	s-25.5,43.6-17,67.1c8.3,23.3,33.1,43.4,60.9,58.9C320.5,620.5,385,605.5,451,594c38.5-6.7,52.5-11,64.2-15
	c114.5-39.6,130-66.9,290.4,16.2c31.4,14.8,30,86.6,121.3,122.8c47.3,20.1,140.5,18,164.8,6.1c30.9-15.1,55-79.7,39.3-106.1
	c-26.3-44.3-42.8-41.2-59.1-87c-9-25.3,7.2-49.8,27.9-69.3c44.5-41.7,114-74.1,124.8-127.3c7.3-36.5-18.3-77.6-63.4-101.6
	c-47.2-25.1-116.6-32.3-157.5-7C961.6,251.8,893.5,254.6,836.7,245.2z"/>
<path class="st1" d="M688.2,503.6c76.8-6.1,78.4-1.9,121,4.1c14.9,2.1,29.3,7.3,42,15.4c67,42.8,140.5,68.4,227,100
	c5.2,1.9,10.5,3.4,16,4.4c0.5,0.1,0.9,0.2,1.4,0.3c77.7,14.9,143.2-59.3,118.3-134.4c-0.6-1.7-1.1-3.4-1.8-5.1
	c-4.1-11.8-10.4-22.8-18.4-32.5c-9.6-11.4-24.6-27.5-45.1-43.1c-2.3-1.8-4.5-3.7-6.6-5.7c-56.5-53.1-205.9-11.3-219-23
	c-44.2-39.4-10.1-88.2,70.1-131.8c7.1-3.8,14.6-6.8,22.4-8.9c75.5-20.1,126.2-62,135.5-87.4c9-24.6,10.9-42-7.3-71
	c-2.9-4.7-6.2-9.1-9.9-13.2c-17.8-20.1-48.7-44-102-40.2c-2.7,0.2-5.5,0.5-8.2,0.9c-69.9,10.8-55,10.7-149.7,58.3
	c-2.6,1.3-5.3,2.5-8,3.6c-165.4,66.5-171.3,96.2-324.1,70.4c-86.9-19.1-221.9-74.1-284.9-96.4C224.6,57.1,189,58,157.8,72
	c-14,6.3-25.6,14.3-34.1,22.9c-26.6,26.6-33.9,95.2,2.2,138c1.1,1.4,2.3,2.7,3.4,4.1c64.1,82.3,173,25.9,206.4,67.9
	c18.6,23.3,54.8,83.1,40,111.1c-31.7,59.9-191,148.6-183.1,208.4c5.5,41,47.3,74.9,103.3,83.8c58.7,9.3,199.3-78.9,233.1-120.2
	c34-41.2,87.4-71.3,147.9-82.9C680.7,504.4,684.4,503.9,688.2,503.6z"/>
</svg>
