<?xml version="1.0" encoding="utf-8"?>
<!-- Generator: Adobe Illustrator 22.1.0, SVG Export Plug-In . SVG Version: 6.00 Build 0)  -->
<svg version="1.1" id="Layer_1" xmlns="http://www.w3.org/2000/svg" xmlns:xlink="http://www.w3.org/1999/xlink" x="0px" y="0px"
	 viewBox="0 0 1366 768" style="enable-background:new 0 0 1366 768;" xml:space="preserve">
<style type="text/css">
	.st0{opacity:0.2;fill:#FDE8CF;enable-background:new    ;}
	.st1{opacity:0.1;fill:#5381F3;enable-background:new    ;}
</style>
<path class="st0" d="M836.7,245.2c-64.3-10.6-123.4-35.9-179.5-62.4C601,156.3,593,78,467,22c-39.6-11.8-84-22-122-5.9
	c-19.5,7.3-40.2,31.7-53.5,65.4c-17.6,44.7-15.2,94.6,5.5,138c1.9,4,3.7,7.9,5.6,12.3c6,14.3,58.6,34.1,66.4,48.1
	c62,62-44,93.2-86,131.3c-19.8,17.8-42.1,34.5-58.1,54.2c-16,19.7-25.5,43.6-17,67.1c8.3,23.3,33.1,43.4,60.9,58.9
	C320.5,620.5,385,605.5,451,594c38.5-6.7,52.5-11,64.2-15c114.5-39.6,130-66.9,290.4,16.2C837,610,835.6,681.8,926.9,718
	c47.3,20.1,140.5,18,164.8,6.1c30.9-15.1,55-79.7,39.3-106.1c-26.3-44.3-42.8-41.2-59.1-87c-9-25.3,7.2-49.8,27.9-69.3
	c44.5-41.7,114-74.1,124.8-127.3c7.3-36.5-18.3-77.6-63.4-101.6c-47.2-25.1-116.6-32.3-157.5-7C961.6,251.8,893.5,254.6,836.7,245.2
	z"/>
<path class="st1" d="M683,504c94.5-7.7,81-0.9,149.6,6.6C906.6,562.6,969,669,1083,666c45.9-1.9,101.9-9.6,134-36
	c14.4-36,27-39-4-116c-17-29-29.7-56.2-70-86c-54-57.6-206.6-32.1-220-44c-46.3-41.3-6.7-92.9,82-138c81.3-18.9,136.3-63.5,146-90
	s11.2-44.7-12-78c-17.2-21.5-50-52.2-112-46c-74.9,11.5-56.5,10.4-157.3,60.9c-169.3,67.6-174,98-328,72c-100-22-263.7-91.5-308-104
	c-48-5.9-88.7,12.7-110,34c-27,27-34.1,97.4,4,140c63.9,85.4,174.3,27.7,208,70c18.6,23.3,54.8,83.1,40,111.1
	c-31.7,59.9-191,148.6-183.1,208.4c5.5,41,47.3,74.9,103.3,83.8c58.7,9.3,199.3-78.9,233.1-120.2C564.1,545.4,620,514.7,683,504z"/>
</svg>
