<?xml version="1.0" encoding="utf-8"?>
<!-- Generator: Adobe Illustrator 22.1.0, SVG Export Plug-In . SVG Version: 6.00 Build 0)  -->
<svg version="1.1" id="Layer_1" xmlns="http://www.w3.org/2000/svg" xmlns:xlink="http://www.w3.org/1999/xlink" x="0px" y="0px"
	 viewBox="0 0 512 512" style="enable-background:new 0 0 512 512;" xml:space="preserve">
<style type="text/css">
	.st0{fill:#F55C11;}
</style>
<path class="st0" d="M496.5,340.5h-21c1.5-2.8,2.4-6,2.8-9.2c3.9,0.7,8-0.2,11.3-2.6c4.5-3.3,6.8-8.8,5.8-14.4l-3.7-21.5l15.8-15.2
	c4.1-3.9,5.5-9.7,3.8-15.1c-1.7-5.4-6.3-9.2-11.9-10.1l-20.8-3V68c0-15.2-12.3-27.5-27.5-27.5H114.1c-1.9-5.1-6.3-8.8-11.8-9.6
	l-21.8-3.1L70.7,8.2C68.2,3.1,63.2,0,57.5,0c-5.6,0-10.7,3.1-13.2,8.2l-9.8,19.6l-21.9,3.1C7,31.7,2.5,35.6,0.7,41
	C-1,46.3,0.4,52.1,4.5,56l15.8,15.2l-3.7,21.5c-1,5.5,1.3,11,5.8,14.4C25,109,28,110,31.1,110c0.8,0,1.6-0.1,2.4-0.2v18
	c0,4.1,3.4,7.5,7.5,7.5c4.1,0,7.5-3.4,7.5-7.5v-24.9l9-4.7l6,3.1V318c0,4.1,3.4,7.5,7.5,7.5h345.2c0.9,1.2,1.9,2.2,3.2,3.1
	c2.6,1.9,5.6,2.9,8.7,2.9c2.3,0,4.7-0.6,6.9-1.7l19.6-10.2l9,4.7v3.7c0,6.9-5.6,12.5-12.5,12.5H61c-6.9,0-12.5-5.6-12.5-12.5V159.8
	c0-4.1-3.4-7.5-7.5-7.5c-4.1,0-7.5,3.4-7.5,7.5V328c0,4.5,1.1,8.7,3,12.5h-21C7,340.5,0,347.5,0,356v6c0,20.7,16.8,37.5,37.5,37.5
	h47.6c-6.6,7.6-10.6,17.6-10.6,28.4c0,8.2,6.6,14.9,14.8,14.9H160c4.1,0,7.5-3.4,7.5-7.5c0-4.1-3.4-7.5-7.5-7.5H89.5
	c0.1-15.6,12.7-28.3,28.2-28.3h75.8c-0.2,1.4-0.2,2.8-0.2,4.2c0,3.4,1.3,6.6,3.7,9c2.4,2.4,5.5,3.8,8.9,3.9
	c41.4,1.1,73.6,5.3,82.2,10.6c3.9,2.4,8.8,6.1,13,9.5c3.2,2.6,8,2,10.5-1.2c2.6-3.2,2-8-1.2-10.5c-4.8-3.8-9.8-7.7-14.4-10.5
	c-14.9-9.2-60.4-11.9-87.6-12.7c0.2-2.3,0.8-4.5,1.8-6.7c3.4-7.6,11-12.6,19.4-12.6h110.1c28.9,0,48.2,6.2,61,15.3
	c0.2,0.2,0.4,0.3,0.6,0.4c13.7,10.1,19.7,23.8,21.8,37l-102.3,19.2h-4.7c-8.3,0-16.6-1.1-24.6-3.1c-8-2.1-15.8-5.2-23.1-9.2
	c-16.8-9.4-35.8-14.3-55-14.3H192c-4.1,0-7.5,3.4-7.5,7.5c0,4.1,3.4,7.5,7.5,7.5h21.2c16.6,0,33.1,4.3,47.7,12.4
	c8.4,4.7,17.3,8.3,26.6,10.7c9.3,2.4,18.8,3.6,28.4,3.6h1l21,38.6c1.3,2.4,3.8,3.9,6.6,3.9h138.3c2.7,0,5.2-1.4,6.5-3.8
	s1.3-5.2-0.1-7.5l-39.1-65.5c-1.6-2.7-4.7-4.1-7.8-3.5l-4.6,0.9c-2.1-12.5-6.8-23.7-14-33h50.8c20.7,0,37.5-16.8,37.5-37.5v-6
	C512,347.5,505,340.5,496.5,340.5z M50.7,84.8l-13.2,6.9c0,0,0,0-0.1,0l-6,3.1l3.7-21.1c0.8-4.8-0.8-9.7-4.3-13L15.4,45.7l21.4-3.1
	c4.8-0.7,9-3.7,11.1-8l9.6-19.3l9.6,19.3c2.2,4.3,6.3,7.3,11.1,8l21.4,3.1L84.2,60.6c-3.5,3.4-5.1,8.3-4.3,13l3.7,21.1l-8.9-4.6
	c-0.1-0.1-0.2-0.1-0.3-0.2l-10-5.2c-2.1-1.1-4.5-1.7-6.9-1.7C55.1,83.1,52.8,83.6,50.7,84.8z M78.5,108.9c4.7,1.9,10,1.2,14.1-1.8
	c4.5-3.3,6.8-8.8,5.8-14.4l-1.3-7.3H384c4.1,0,7.5-3.4,7.5-7.5s-3.4-7.5-7.5-7.5H95.5l15-14.5c0.2-0.2,0.3-0.4,0.5-0.5h340
	c6.9,0,12.5,5.6,12.5,12.5v156.5c-2.5-1.9-5.7-3-9-3c-2.1,0-4.1,0.4-6,1.3V78c0-4.1-3.4-7.5-7.5-7.5h-24.8c-4.1,0-7.5,3.4-7.5,7.5
	s3.4,7.5,7.5,7.5h17.2v159.8l-2,4l-21.8,3.1c-5.6,0.8-10.2,4.7-11.9,10.1c-1.7,5.4-0.3,11.1,3.8,15.1l15.8,15.2l-3.1,17.7H78.5
	V108.9z M454.5,304.6c-2.4,0-4.7,0.6-6.8,1.7l-19.2,10l3.7-21.1c0.8-4.8-0.8-9.7-4.3-13l-15.4-14.9l21.4-3.1c4.8-0.7,9-3.7,11.1-8
	l9.6-19.3l9.6,19.3c0,0.1,0.1,0.2,0.1,0.3c0.2,0.3,0.3,0.6,0.5,0.9c2.3,3.7,6.1,6.2,10.4,6.8l21.4,3.1l-15.4,14.9
	c-3.5,3.4-5.1,8.3-4.3,13l3.7,21.1l-6-3.1c0,0,0,0-0.1,0l-13.2-6.9C459.2,305.1,456.9,304.6,454.5,304.6z M469.5,497H348.9
	l-16.1-29.5l107.1-20.1L469.5,497z M497,362c0,12.4-10.1,22.5-22.5,22.5h-66.9c-16.7-11.3-39.5-17-68.1-17H229.4
	c-12.6,0-24.2,6.6-30.7,17H37.5C25.1,384.5,15,374.4,15,362v-6c0-0.3,0.2-0.5,0.5-0.5h481c0.3,0,0.5,0.2,0.5,0.5V362z"/>
<path class="st0" d="M196,125h-80c-4.1,0-7.5,3.4-7.5,7.5s3.4,7.5,7.5,7.5h80c4.1,0,7.5-3.4,7.5-7.5S200.1,125,196,125z"/>
<path class="st0" d="M196,154h-80c-4.1,0-7.5,3.4-7.5,7.5s3.4,7.5,7.5,7.5h80c4.1,0,7.5-3.4,7.5-7.5S200.1,154,196,154z"/>
<path class="st0" d="M196,183h-80c-4.1,0-7.5,3.4-7.5,7.5s3.4,7.5,7.5,7.5h80c4.1,0,7.5-3.4,7.5-7.5S200.1,183,196,183z"/>
<path class="st0" d="M196,212.1h-80c-4.1,0-7.5,3.4-7.5,7.5c0,4.1,3.4,7.5,7.5,7.5h80c4.1,0,7.5-3.4,7.5-7.5
	C203.5,215.4,200.1,212.1,196,212.1z"/>
<path class="st0" d="M196,241.1h-80c-4.1,0-7.5,3.4-7.5,7.5s3.4,7.5,7.5,7.5h80c4.1,0,7.5-3.4,7.5-7.5S200.1,241.1,196,241.1z"/>
<path class="st0" d="M394.1,203.9c2.4-3.6,5.4-8.1,5.4-13.9s-3-10.2-5.4-13.9c-1.2-1.8-2.4-3.6-2.7-4.8c-0.4-1.3-0.2-3.6-0.1-5.8
	c0.2-4.3,0.5-9.6-2.2-14.4c-2.8-4.8-7.6-7.2-11.4-9.2c-1.9-1-3.9-2-4.8-2.9c-0.9-0.9-1.9-2.9-2.9-4.8c-1.9-3.8-4.3-8.6-9.2-11.4
	c-4.8-2.8-10.1-2.5-14.4-2.2c-2.2,0.1-4.4,0.2-5.8-0.1c-1.2-0.3-3-1.5-4.8-2.7c-3.6-2.4-8.1-5.4-13.9-5.4c-5.7,0-10.2,3-13.9,5.4
	c-1.8,1.2-3.6,2.4-4.8,2.7c-1.3,0.4-3.6,0.2-5.8,0.1c-4.3-0.2-9.6-0.5-14.4,2.2c-4.8,2.8-7.3,7.6-9.2,11.4c-1,1.9-2,3.9-2.9,4.8
	c-0.9,0.9-2.9,1.9-4.8,2.9c-3.8,1.9-8.6,4.3-11.4,9.2c-2.8,4.8-2.5,10.1-2.2,14.4c0.1,2.2,0.2,4.4-0.1,5.8c-0.3,1.2-1.5,3-2.7,4.8
	c-2.4,3.6-5.4,8.1-5.4,13.9s3,10.2,5.4,13.9c1.2,1.8,2.4,3.6,2.7,4.8c0.4,1.3,0.2,3.6,0.1,5.8c-0.2,4.3-0.5,9.6,2.2,14.4
	c2.8,4.8,7.6,7.2,11.4,9.2c1.9,1,3.9,2,4.8,2.9c0.9,0.9,1.9,2.9,2.9,4.8c1.9,3.8,4.3,8.6,9.2,11.4c4.8,2.8,10.1,2.5,14.4,2.2
	c2.2-0.1,4.4-0.2,5.8,0.1c1.2,0.3,3,1.5,4.8,2.7c3.6,2.4,8.1,5.4,13.9,5.4c5.7,0,10.2-3,13.9-5.4c1.8-1.2,3.6-2.4,4.8-2.7
	c1.3-0.4,3.6-0.2,5.8-0.1c4.3,0.2,9.6,0.5,14.4-2.2c4.8-2.8,7.3-7.6,9.2-11.4c1-1.9,2-3.9,2.9-4.8s2.9-1.9,4.8-2.9
	c3.8-1.9,8.6-4.3,11.4-9.2c2.8-4.8,2.5-10.1,2.2-14.4c-0.1-2.2-0.2-4.4,0.1-5.8C391.8,207.4,393,205.6,394.1,203.9z M381.6,195.6
	c-1.7,2.6-3.7,5.6-4.6,9.1c-1,3.6-0.8,7.3-0.6,10.5c0.1,2.2,0.3,5.1-0.2,6c-0.6,1-3.2,2.3-5.2,3.3c-2.9,1.4-6.1,3.1-8.7,5.7
	c-2.6,2.6-4.3,5.9-5.7,8.7c-1,2-2.3,4.6-3.3,5.2c-0.9,0.5-3.9,0.4-6,0.2c-3.2-0.2-6.8-0.4-10.5,0.6c-3.5,0.9-6.5,2.9-9.1,4.6
	c-2,1.3-4.4,2.9-5.6,2.9s-3.6-1.6-5.6-2.9c-2.6-1.7-5.6-3.7-9.1-4.6c-2.2-0.6-4.3-0.7-6.4-0.7c-1.4,0-2.8,0.1-4.1,0.1
	c-2.2,0.1-5.1,0.3-6-0.2c-1-0.6-2.3-3.2-3.3-5.2c-1.4-2.8-3.1-6.1-5.7-8.7c-2.6-2.6-5.9-4.3-8.7-5.7c-2-1-4.6-2.3-5.2-3.3
	c-0.5-0.9-0.4-3.9-0.2-6c0.2-3.2,0.4-6.8-0.6-10.5c-0.9-3.5-2.9-6.5-4.6-9.1c-1.3-2-2.9-4.4-2.9-5.6c0-1.2,1.6-3.6,2.9-5.6
	c1.7-2.6,3.7-5.6,4.6-9.1c1-3.6,0.8-7.3,0.6-10.5c-0.1-2.2-0.3-5.1,0.2-6c0.6-1,3.2-2.3,5.2-3.3c2.9-1.4,6.1-3.1,8.7-5.7
	c2.6-2.6,4.3-5.9,5.7-8.7c1-2,2.3-4.6,3.3-5.2c0.9-0.5,3.9-0.4,6-0.2c3.2,0.2,6.8,0.4,10.5-0.6c3.5-0.9,6.5-2.9,9.1-4.6
	c2-1.3,4.4-2.9,5.6-2.9s3.6,1.6,5.6,2.9c2.6,1.7,5.6,3.7,9.1,4.6c3.6,1,7.3,0.8,10.5,0.6c2.2-0.1,5.1-0.3,6,0.2
	c1,0.6,2.3,3.2,3.3,5.2c1.4,2.8,3.1,6.1,5.7,8.7c2.6,2.6,5.9,4.3,8.7,5.7c2,1,4.6,2.3,5.2,3.3c0.5,0.9,0.4,3.9,0.2,6
	c-0.2,3.2-0.4,6.8,0.6,10.5c0.9,3.5,2.9,6.5,4.6,9.1c1.3,2,2.9,4.4,2.9,5.6C384.5,191.2,382.9,193.6,381.6,195.6z"/>
<path class="st0" d="M307.1,167.6c0,4.1-3.4,7.5-7.5,7.5s-7.5-3.4-7.5-7.5s3.4-7.5,7.5-7.5S307.1,163.5,307.1,167.6z"/>
<path class="st0" d="M351.9,212.4c0,4.1-3.4,7.5-7.5,7.5c-4.1,0-7.5-3.4-7.5-7.5s3.4-7.5,7.5-7.5
	C348.5,204.9,351.9,208.2,351.9,212.4z"/>
<path class="st0" d="M339.4,162L294,207.4c-2.9,2.9-2.9,7.7,0,10.6c1.5,1.5,3.4,2.2,5.3,2.2s3.8-0.7,5.3-2.2l45.4-45.4
	c2.9-2.9,2.9-7.7,0-10.6C347.1,159.1,342.3,159.1,339.4,162z"/>
</svg>
