<svg height="512pt" viewBox="-30 0 512 512" width="512pt" xmlns="http://www.w3.org/2000/svg"><path d="m255.082031 180.894531h-60.019531c-8.402344 0-15.003906 6.601563-15.003906 15.003907v240.078124c0 8.402344 6.601562 15.003907 15.003906 15.003907h60.019531c8.402344 0 15.003907-6.601563 15.003907-15.003907v-240.078124c0-8.402344-6.601563-15.003907-15.003907-15.003907zm0 0" fill="#575f64"/><path d="m270.085938 315.9375v120.039062c0 8.402344-6.601563 15.003907-15.003907 15.003907h-60.019531c-8.402344 0-15.003906-6.601563-15.003906-15.003907v-120.039062zm0 0" fill="#32393f"/><path d="m203.765625 123.574219c-3.898437-2.699219-9.003906-3.601563-13.503906-1.800781l-180.058594 60.019531c-6 1.800781-10.203125 7.503906-10.203125 14.105469v240.078124c0 6.601563 4.203125 12.300782 10.203125 14.101563l180.058594 61.019531c1.5.601563 3.300781.902344 4.800781.902344 3.003906 0 6.304688-.902344 8.703125-2.703125 3.902344-3 6.300781-7.5 6.300781-12.300781v-361.117188c0-4.800781-2.398437-9.304687-6.300781-12.304687zm0 0" fill="#ff641a"/><path d="m210.066406 315.9375v181.058594c0 4.800781-2.398437 9.300781-6.300781 12.300781-2.402344 1.800781-5.699219 2.703125-8.703125 2.703125-1.5 0-3.300781-.300781-4.800781-.902344l-180.058594-61.019531c-6-1.800781-10.203125-7.5-10.203125-14.101563v-120.039062zm0 0" fill="#f03800"/><g fill="#9cdd05"><path d="m436.019531 179.859375c-8.292969 0-15.003906-6.511719-15.003906-14.804687 0-74.46875-60.578125-135.046876-135.042969-135.046876-8.296875 0-15.007812-6.710937-15.007812-15.003906 0-8.292968 6.710937-15.003906 15.007812-15.003906 91.007813 0 165.050782 74.042969 165.050782 165.054688 0 8.292968-6.710938 14.804687-15.003907 14.804687zm0 0"/><path d="m376 179.859375c-8.292969 0-15.003906-6.511719-15.003906-14.804687 0-41.367188-33.660156-75.027344-75.023438-75.027344-8.296875 0-15.007812-6.710938-15.007812-15.003906 0-8.292969 6.710937-15.003907 15.007812-15.003907 57.90625 0 105.03125 47.125 105.03125 105.035157 0 8.292968-6.710937 14.804687-15.003906 14.804687zm0 0"/><path d="m315.980469 179.859375c-8.292969 0-15.003907-6.511719-15.003907-14.804687 0-8.28125-6.726562-15.007813-15.003906-15.007813-8.296875 0-15.007812-6.710937-15.007812-15.003906s6.710937-15.003907 15.007812-15.003907c24.820313 0 45.011719 20.191407 45.011719 45.015626 0 8.292968-6.710937 14.804687-15.003906 14.804687zm0 0"/></g><path d="m150.046875 285.925781v60.019531c0 8.402344-6.601563 15.007813-15.003906 15.007813-8.402344 0-15.003907-6.605469-15.003907-15.007813v-60.019531c0-8.402343 6.601563-15.003906 15.003907-15.003906 8.402343 0 15.003906 6.601563 15.003906 15.003906zm0 0" fill="#ffda2d"/><path d="m120.039062 315.9375h30.007813v30.007812c0 8.402344-6.601563 15.007813-15.003906 15.007813-8.402344 0-15.003907-6.605469-15.003907-15.007813zm0 0" fill="#fdbf00"/></svg>