<?xml version="1.0" encoding="utf-8"?>
<!-- Generator: Adobe Illustrator 22.1.0, SVG Export Plug-In . SVG Version: 6.00 Build 0)  -->
<svg version="1.1" id="Layer_1" xmlns="http://www.w3.org/2000/svg" xmlns:xlink="http://www.w3.org/1999/xlink" x="0px" y="0px"
	 viewBox="0 0 1566 409" style="enable-background:new 0 0 1566 409;" xml:space="preserve">
<style type="text/css">
	.st0{fill:#0658FF;}
	.st1{fill:url(#SVGID_1_);}
	.st2{fill:url(#SVGID_2_);}
	.st3{fill:url(#SVGID_3_);}
	.st4{fill:url(#SVGID_4_);}
</style>
<g>
	<path class="st0" d="M-2,0h542h1026v409h-340H-2V0z"/>
	
		<linearGradient id="SVGID_1_" gradientUnits="userSpaceOnUse" x1="627.7931" y1="-2.245" x2="627.7931" y2="398.544" gradientTransform="matrix(1 0 0 -1 0 410)">
		<stop  offset="0" style="stop-color:#06A4FF"/>
		<stop  offset="1" style="stop-color:#0658FF"/>
	</linearGradient>
	<path class="st1" d="M780.1,11.5l93.8,89.8L556.2,409l-174.6,3.2L780.1,11.5z"/>
	
		<linearGradient id="SVGID_2_" gradientUnits="userSpaceOnUse" x1="1022.6628" y1="1" x2="1022.6628" y2="221.133" gradientTransform="matrix(1 0 0 -1 0 410)">
		<stop  offset="0" style="stop-color:#06A4FF"/>
		<stop  offset="1" style="stop-color:#0658FF"/>
	</linearGradient>
	<path class="st2" d="M863,284.2l88.2-95.4L1182.4,409H985.8L863,284.2z"/>
	
		<linearGradient id="SVGID_3_" gradientUnits="userSpaceOnUse" x1="1334.4598" y1="1" x2="1334.4598" y2="391" gradientTransform="matrix(1 0 0 -1 0 410)">
		<stop  offset="0" style="stop-color:#06A4FF"/>
		<stop  offset="1" style="stop-color:#0658FF"/>
	</linearGradient>
	<path class="st3" d="M1069,19l388,15l142.9,375H1226L1069,19z"/>
	
		<linearGradient id="SVGID_4_" gradientUnits="userSpaceOnUse" x1="736.3629" y1="-2.245" x2="736.3629" y2="261.651" gradientTransform="matrix(1 0 0 -1 0 410)">
		<stop  offset="0" style="stop-color:#06A4FF"/>
		<stop  offset="1" style="stop-color:#0658FF"/>
	</linearGradient>
	<path class="st4" d="M822.7,148.3l93.8,89.9l-196.9,174L556.2,409L822.7,148.3z"/>
</g>
</svg>
