<?xml version="1.0" encoding="utf-8"?>
<!-- Generator: Adobe Illustrator 22.1.0, SVG Export Plug-In . SVG Version: 6.00 Build 0)  -->
<svg version="1.1" id="Layer_1" xmlns="http://www.w3.org/2000/svg" xmlns:xlink="http://www.w3.org/1999/xlink" x="0px" y="0px"
	 viewBox="0 0 512 512" style="enable-background:new 0 0 512 512;" xml:space="preserve">
<style type="text/css">
	.st0{fill:#F55C11;}
</style>
<path class="st0" d="M469.3,0H93.9C70.3,0,51.2,19.1,51.2,42.7v179.2H25.6C11.5,221.9,0,233.3,0,247.5v238.9
	C0,500.5,11.5,512,25.6,512h119.5c14.1,0,25.6-11.5,25.6-25.6v-128h59.7v17.1c-23.6,0-42.6,19.1-42.7,42.7v8.5
	c0,9.4,7.6,17.1,17.1,17.1h153.6c9.4,0,17.1-7.6,17.1-17.1v-8.5c0-23.6-19.1-42.6-42.7-42.7v-17.1h136.5c23.6,0,42.6-19.1,42.7-42.7
	V42.7C512,19.1,492.9,0,469.3,0z M25.6,238.9h119.5c4.7,0,8.5,3.8,8.5,8.5v8.5H17.1v-8.5C17.1,242.8,20.9,238.9,25.6,238.9z
	 M17.1,392.5V273.1h136.5v170.7H17.1V392.5z M170.7,264.5v-17.1c0-14.1-11.5-25.6-25.6-25.6h-42.7V51.2h358.4v221.9H170.7V264.5z
	 M145.1,494.9H25.6c-4.7,0-8.5-3.8-8.5-8.5v-25.6h136.5v25.6C153.6,491.1,149.8,494.9,145.1,494.9z M358.4,418.1l0,8.5H204.8v-8.5
	c0-14.1,11.5-25.6,25.6-25.6h102.4C346.9,392.6,358.4,404,358.4,418.1z M315.7,375.5h-68.3v-17.1h68.3V375.5z M494.9,315.7
	c0,14.1-11.5,25.6-25.6,25.6H170.7v-51.2h290.1c9.4,0,17.1-7.6,17.1-17.1V51.2c0-9.4-7.6-17.1-17.1-17.1H102.4
	c-9.4,0-17.1,7.6-17.1,17.1v170.7H68.3V42.7c0-14.1,11.5-25.6,25.6-25.6h375.5c14.1,0,25.6,11.5,25.6,25.6V315.7z"/>
<path class="st0" d="M290.1,307.2h-17.1c-4.7,0-8.5,3.8-8.5,8.5c0,4.7,3.8,8.5,8.5,8.5h17.1c4.7,0,8.5-3.8,8.5-8.5
	C298.7,311,294.8,307.2,290.1,307.2z"/>
<path class="st0" d="M93.9,477.9c0,4.7-3.8,8.5-8.5,8.5c-4.7,0-8.5-3.8-8.5-8.5c0-4.7,3.8-8.5,8.5-8.5
	C90,469.3,93.9,473.2,93.9,477.9z"/>
<path class="st0" d="M42.7,307.2h8.5c4.7,0,8.5-3.8,8.5-8.5c0-4.7-3.8-8.5-8.5-8.5h-8.5c-4.7,0-8.5,3.8-8.5,8.5
	C34.1,303.4,38,307.2,42.7,307.2z"/>
<path class="st0" d="M128,290.1H85.3c-4.7,0-8.5,3.8-8.5,8.5c0,4.7,3.8,8.5,8.5,8.5H128c4.7,0,8.5-3.8,8.5-8.5
	C136.5,294,132.7,290.1,128,290.1z"/>
<path class="st0" d="M136.5,68.3H128c-4.7,0-8.5,3.8-8.5,8.5c0,4.7,3.8,8.5,8.5,8.5h8.5c4.7,0,8.5-3.8,8.5-8.5
	C145.1,72.1,141.2,68.3,136.5,68.3z"/>
<path class="st0" d="M213.3,76.8c0-4.7-3.8-8.5-8.5-8.5h-34.1c-4.7,0-8.5,3.8-8.5,8.5c0,4.7,3.8,8.5,8.5,8.5h34.1
	C209.5,85.3,213.3,81.5,213.3,76.8z"/>
<path class="st0" d="M370.3,171.1l-12-5c0.2-2.7,0.2-5.4,0-8.1l11.9-4.9c8.7-3.6,12.8-13.6,9.2-22.3l-6.5-15.8v0
	c-3.6-8.7-13.6-12.8-22.3-9.2l-11.9,4.9c-1.8-2-3.7-3.9-5.8-5.7l5-12c1.7-4.2,1.7-8.9,0-13s-5-7.5-9.2-9.2l-15.8-6.6
	c-8.7-3.6-18.7,0.5-22.3,9.2l-5,12c-2.7-0.2-5.4-0.2-8.1,0l-4.9-11.9c-3.6-8.7-13.6-12.8-22.3-9.2l-15.8,6.5
	c-8.7,3.6-12.8,13.6-9.2,22.3l4.9,11.9c-2,1.8-3.9,3.7-5.7,5.8l-12-5c-8.7-3.6-18.6,0.5-22.3,9.2l-6.5,15.8c-1.7,4.2-1.7,8.9,0,13.1
	c1.7,4.2,5,7.5,9.2,9.2l12,5c-0.2,2.7-0.2,5.4,0,8.1l-11.9,4.9c-8.7,3.6-12.8,13.6-9.2,22.3l6.5,15.8c3.6,8.7,13.6,12.8,22.3,9.2
	l11.9-4.9c1.8,2,3.7,3.9,5.8,5.7l-5,12c-1.7,4.2-1.7,8.9,0,13s5.1,7.5,9.2,9.2l15.8,6.6c8.7,3.6,18.7-0.5,22.3-9.2l5-12
	c2.7,0.2,5.4,0.2,8.1,0l4.9,11.9c3.6,8.7,13.6,12.8,22.3,9.2l15.8-6.5c8.7-3.6,12.8-13.6,9.2-22.3l-4.9-11.9c2-1.8,3.9-3.7,5.7-5.8
	l12,5c8.7,3.6,18.7-0.5,22.3-9.2l6.5-15.8c1.7-4.2,1.8-8.9,0-13.1C377.8,176.2,374.5,172.9,370.3,171.1L370.3,171.1z M357.2,202.7
	l-17.8-7.4c-3.6-1.5-7.8-0.3-10.1,2.8c-3.3,4.5-7.3,8.4-11.7,11.8c-3.1,2.3-4.2,6.5-2.7,10.1l7.3,17.7l-15.8,6.5l-7.4-17.7
	c-1.5-3.6-5.2-5.7-9.1-5.2c-5.5,0.8-11.1,0.8-16.6,0c-3.9-0.6-7.7,1.5-9.2,5.2l-7.4,17.8l-15.8-6.5l7.4-17.8
	c1.5-3.6,0.3-7.8-2.8-10.1c-4.5-3.3-8.4-7.3-11.8-11.7c-2.3-3.1-6.5-4.2-10.1-2.7l-17.7,7.4l-6.5-15.8l17.7-7.3
	c3.6-1.5,5.7-5.2,5.2-9.1c-0.8-5.5-0.8-11.1,0-16.6c0.6-3.9-1.5-7.7-5.2-9.2l-17.8-7.4l6.5-15.8l17.8,7.4c3.6,1.5,7.8,0.3,10.1-2.8
	c3.3-4.5,7.3-8.4,11.7-11.8c3.1-2.3,4.2-6.5,2.7-10.1l-7.4-17.7l15.8-6.5l7.4,17.7c1.5,3.6,5.2,5.7,9.1,5.2c5.5-0.8,11.1-0.8,16.6,0
	c3.9,0.6,7.7-1.5,9.2-5.2l7.4-17.8l15.8,6.5l-7.4,17.8c-1.5,3.6-0.3,7.8,2.8,10.1c4.5,3.3,8.4,7.3,11.8,11.7
	c2.3,3.1,6.5,4.2,10.1,2.7l17.8-7.3l6.5,15.7l-17.7,7.3c-3.6,1.5-5.7,5.2-5.2,9.1c0.8,5.5,0.8,11.1,0,16.6c-0.6,3.9,1.5,7.7,5.2,9.2
	l17.8,7.4L357.2,202.7z"/>
<path class="st0" d="M294.7,130.6c-15-6.2-32.4-1-41.4,12.6s-7.3,31.6,4.2,43.1c11.5,11.5,29.6,13.3,43.1,4.2s18.8-26.4,12.6-41.4
	C309.7,140.7,303,134,294.7,130.6z M288.1,177.9c-8.7,3.6-18.7-0.5-22.3-9.2c-3.6-8.7,0.5-18.7,9.2-22.3c8.7-3.6,18.7,0.5,22.3,9.2
	c1.8,4.2,1.8,8.9,0,13.1C295.7,172.9,292.3,176.2,288.1,177.9L288.1,177.9z"/>
<path class="st0" d="M122,326.8l-70.8,70.8v-30.6c0-4.7-3.8-8.5-8.5-8.5c-4.7,0-8.5,3.8-8.5,8.5v51.2c0,1,0.2,2,0.6,3
	c0.1,0.3,0.2,0.5,0.4,0.8c0.3,0.6,0.7,1.2,1.2,1.8c0.2,0.2,0.4,0.4,0.6,0.6c0.7,0.6,1.4,1.1,2.3,1.5c0.1,0,0.1,0.1,0.2,0.1l0,0
	c1,0.4,2.1,0.7,3.3,0.7h51.2c4.7,0,8.5-3.8,8.5-8.5c0-4.7-3.8-8.5-8.5-8.5H63.3l70.8-70.8c3.2-3.3,3.2-8.7-0.1-12
	S125.3,323.5,122,326.8z"/>
</svg>
