<?xml version="1.0" encoding="utf-8"?>
<!-- Generator: Adobe Illustrator 22.1.0, SVG Export Plug-In . SVG Version: 6.00 Build 0)  -->
<svg version="1.1" id="Layer_1" xmlns="http://www.w3.org/2000/svg" xmlns:xlink="http://www.w3.org/1999/xlink" x="0px" y="0px"
	 viewBox="0 0 1366 768" style="enable-background:new 0 0 1366 768;" xml:space="preserve">
<style type="text/css">
	.st0{fill:#FFFFFF;}
	.st1{opacity:0.5;}
	.st2{fill:#054FE6;}
	.st3{opacity:0.5;fill:#054FE6;}
</style>
<path class="st0" d="M0,559l38,76c0,0,34,76,112,56s1216-307,1216-307v384H0V559z"/>
<g class="st1">
	<path class="st2" d="M1366,384v384H0V559l38,76c0,0,34,76,112,56S1366,384,1366,384"/>
	<path class="st0" d="M1366,414v384H0V589l38,76c0,0,34,76,112,56S1366,414,1366,414"/>
</g>
<g>
	<path class="st3" d="M0,559l38,76c0,0,34,76,112,56s1216-307,1216-307v384H0V559z"/>
	<path class="st0" d="M0,574l38,76c0,0,34,76,112,56s1216-307,1216-307v384H0V574z"/>
</g>
<g>
	<path class="st3" d="M0,559l38,76c0,0,34,76,112,56s1216-307,1216-307v384H0V559z"/>
	<path class="st0" d="M0,589l38,76c0,0,34,76,112,56s1216-307,1216-307v384H0V589z"/>
</g>
</svg>
