<?xml version="1.0" encoding="utf-8"?>
<!-- Generator: Adobe Illustrator 22.1.0, SVG Export Plug-In . SVG Version: 6.00 Build 0)  -->
<svg version="1.1" id="Layer_1" xmlns="http://www.w3.org/2000/svg" xmlns:xlink="http://www.w3.org/1999/xlink" x="0px" y="0px"
	 viewBox="0 0 1366 768" style="enable-background:new 0 0 1366 768;" xml:space="preserve">
<style type="text/css">
	.st0{fill:#FFFFFF;}
	.st1{opacity:0.5;fill:#F55C11;}
</style>
<path class="st0" d="M0,559l38,76c0,0,34,76,112,56s1216-307,1216-307v384H0V559z"/>
<g>
	<path class="st1" d="M0,559l38,76c0,0,34,76,112,56s1216-307,1216-307v384H0V559z"/>
	<path class="st0" d="M0,574l38,76c0,0,34,76,112,56s1216-307,1216-307v384H0V574z"/>
</g>
<g>
	<path class="st1" d="M0,559l38,76c0,0,34,76,112,56s1216-307,1216-307v384H0V559z"/>
	<path class="st0" d="M0,589l38,76c0,0,34,76,112,56s1216-307,1216-307v384H0V589z"/>
</g>
</svg>
