<svg height="512pt" viewBox="0 -16 512 512" width="512pt" xmlns="http://www.w3.org/2000/svg"><path d="m440.769531 15h-369.535156c-22.089844 0-40.167969 18.074219-40.167969 40.167969v313.300781h449.867188v-313.300781c0-22.089844-18.078125-40.167969-40.164063-40.167969zm0 0" fill="#fef4f5"/><path d="m480.933594 55.167969c0-22.09375-18.078125-40.167969-40.164063-40.167969h-184.773437v353.46875h224.9375zm0 0" fill="#d5eded"/><path d="m480.933594 383.46875h-449.867188c-8.285156 0-15-6.71875-15-15v-313.300781c0-30.421875 24.75-55.167969 55.167969-55.167969h369.535156c30.417969 0 55.167969 24.746094 55.167969 55.167969v313.300781c-.003906 8.28125-6.714844 15-15.003906 15zm-434.867188-30h419.867188v-298.300781c0-13.878907-11.289063-25.167969-25.164063-25.167969h-369.535156c-13.878906 0-25.167969 11.289062-25.167969 25.167969zm0 0" fill="#00acb3"/><path d="m440.769531 0h-184.773437v30h184.773437c13.878907 0 25.167969 11.289062 25.167969 25.167969v298.300781h-209.941406v30h224.9375c8.285156 0 15-6.71875 15-15v-313.300781c0-30.417969-24.746094-55.167969-55.164063-55.167969zm0 0" fill="#008186"/><path d="m380.148438 182.324219-19.746094-24.511719 1.566406-31.4375c.351562-7.046875-4.253906-13.382812-11.0625-15.226562l-30.382812-8.226563-17.207032-26.351563c-3.859375-5.910156-11.3125-8.328124-17.902344-5.816406l-29.414062 11.203125-29.410156-11.203125c-6.59375-2.511718-14.042969-.089844-17.898438 5.816406l-17.210937 26.355469-30.382813 8.222657c-6.8125 1.84375-11.414062 8.179687-11.066406 15.226562l1.566406 31.4375-19.746094 24.511719c-4.421874 5.496093-4.421874 13.328125 0 18.820312l19.746094 24.511719-1.566406 31.4375c-.351562 7.046875 4.253906 13.386719 11.066406 15.226562l30.378906 8.222657 17.214844 26.355469c3.855469 5.90625 11.304688 8.328124 17.898438 5.816406l29.414062-11.207032 29.410156 11.207032c1.746094.664062 3.554688.984375 5.339844.984375 4.949219 0 9.726563-2.460938 12.5625-6.800781l17.207032-26.359376 30.382812-8.21875c6.8125-1.84375 11.414062-8.179687 11.066406-15.226562l-1.566406-31.4375 19.746094-24.511719c4.421875-5.492187 4.421875-13.328125-.003906-18.820312zm0 0" fill="#ff9f00"/><path d="m285.414062 312.714844c1.746094.664062 3.554688.984375 5.339844.984375 4.949219 0 9.726563-2.460938 12.5625-6.800781l17.207032-26.359376 30.382812-8.21875c6.8125-1.84375 11.414062-8.183593 11.066406-15.226562l-1.566406-31.441406 19.746094-24.507813c4.425781-5.496093 4.425781-13.328125 0-18.820312l-19.746094-24.515625 1.566406-31.4375c.351563-7.042969-4.253906-13.382813-11.066406-15.226563l-30.382812-8.222656-17.207032-26.355469c-3.855468-5.90625-11.3125-8.328125-17.902344-5.816406l-29.410156 11.207031-.007812-.003906v219.554687l.007812-.003906zm0 0" fill="#e47500"/><path d="m497 353.46875h-482c-8.285156 0-15 6.714844-15 15v16.066406c0 52.566406 42.769531 95.332032 95.335938 95.332032h321.332031c52.566406 0 95.332031-42.765626 95.332031-95.332032v-16.066406c0-8.285156-6.714844-15-15-15zm0 0" fill="#a8ebfa"/><path d="m497 353.46875h-241v126.398438h160.667969c52.566406 0 95.332031-42.765626 95.332031-95.335938v-16.0625c0-8.285156-6.714844-15-15-15zm0 0" fill="#76e2f8"/><path d="m296.167969 399.535156h-80.332031c-8.285157 0-15-6.71875-15-15 0-8.285156 6.714843-15 15-15h80.332031c8.285156 0 15 6.714844 15 15 0 8.28125-6.714844 15-15 15zm0 0" fill="#00acb3"/><path d="m296.167969 369.535156h-40.167969v30h40.167969c8.28125 0 15-6.71875 15-15 0-8.285156-6.71875-15-15-15zm0 0" fill="#008186"/></svg>