<?xml version="1.0" encoding="utf-8"?>
<!-- Generator: Adobe Illustrator 22.1.0, SVG Export Plug-In . SVG Version: 6.00 Build 0)  -->
<svg version="1.1" id="Layer_1" xmlns="http://www.w3.org/2000/svg" xmlns:xlink="http://www.w3.org/1999/xlink" x="0px" y="0px"
	 viewBox="0 0 1666 788.3" style="enable-background:new 0 0 1666 788.3;" xml:space="preserve">
<style type="text/css">
	.st0{fill:url(#SVGID_1_);fill-opacity:0.43;}
	.st1{fill:url(#SVGID_2_);fill-opacity:0.5;}
	.st2{opacity:0.57;fill:url(#SVGID_3_);enable-background:new    ;}
	.st3{opacity:0.57;fill:url(#SVGID_4_);enable-background:new    ;}
	.st4{opacity:0.57;fill:#2AF9F2;enable-background:new    ;}
	.st5{opacity:0.57;fill:url(#SVGID_5_);fill-opacity:0.5;enable-background:new    ;}
	.st6{opacity:0.57;fill:url(#SVGID_6_);fill-opacity:0.5;enable-background:new    ;}
	.st7{opacity:0.57;fill:#2AF9F2;fill-opacity:0.5;enable-background:new    ;}
	.st8{fill:url(#SVGID_7_);fill-opacity:0.2;}
	.st9{opacity:0.57;fill:url(#SVGID_8_);enable-background:new    ;}
	.st10{opacity:0.57;fill:url(#SVGID_9_);enable-background:new    ;}
</style>
<g>
	
		<linearGradient id="SVGID_1_" gradientUnits="userSpaceOnUse" x1="0.3" y1="368.35" x2="1676.3" y2="368.35" gradientTransform="matrix(1 0 0 1 0 20)">
		<stop  offset="0" style="stop-color:#7A2C05"/>
		<stop  offset="3.391768e-02" style="stop-color:#7E2E05"/>
		<stop  offset="1" style="stop-color:#F55C11"/>
	</linearGradient>
	<path class="st0" d="M0.3-7.3V787c0,0,271.8,0,496,0c219.4,0,1180,0,1180,0V-10.3L0.3-7.3z"/>
	
		<linearGradient id="SVGID_2_" gradientUnits="userSpaceOnUse" x1="-182.2901" y1="434.2532" x2="315.4241" y2="-180.3718" gradientTransform="matrix(1 0 0 1 0 20)">
		<stop  offset="0" style="stop-color:#F55C11;stop-opacity:0.3"/>
		<stop  offset="1" style="stop-color:#FF5C11;stop-opacity:0.6"/>
	</linearGradient>
	<path class="st1" d="M-66.9-142.9l413.3,443.2c20.7,22.2,19.5,57-2.7,77.7l-65.8,61.4c-22.2,20.7-57,19.5-77.7-2.7L-213.2-6.5
		c-20.7-22.2-19.5-57,2.7-77.7l65.8-61.4C-122.5-166.3-87.7-165.1-66.9-142.9z"/>
	
		<linearGradient id="SVGID_3_" gradientUnits="userSpaceOnUse" x1="938" y1="365.5" x2="1047" y2="365.5" gradientTransform="matrix(1 0 0 1 0 20)">
		<stop  offset="2.860137e-02" style="stop-color:#F55C11;stop-opacity:0.6"/>
		<stop  offset="1" style="stop-color:#F55C11"/>
	</linearGradient>
	<circle class="st2" cx="992.5" cy="385.5" r="54.5"/>
	
		<linearGradient id="SVGID_4_" gradientUnits="userSpaceOnUse" x1="993" y1="397.3" x2="993" y2="334.772" gradientTransform="matrix(1 0 0 1 0 20)">
		<stop  offset="0" style="stop-color:#F55C11"/>
		<stop  offset="1" style="stop-color:#F55C11"/>
	</linearGradient>
	<circle class="st3" cx="993" cy="386" r="31.3"/>
	<circle class="st4" cx="993.5" cy="386.5" r="7.5"/>
	
		<linearGradient id="SVGID_5_" gradientUnits="userSpaceOnUse" x1="152" y1="555.5" x2="227" y2="555.5" gradientTransform="matrix(1 0 0 1 0 20)">
		<stop  offset="0" style="stop-color:#F55C11;stop-opacity:0.5"/>
		<stop  offset="1" style="stop-color:#F55C11"/>
	</linearGradient>
	<circle class="st5" cx="189.5" cy="575.5" r="37.5"/>
	
		<linearGradient id="SVGID_6_" gradientUnits="userSpaceOnUse" x1="168.4" y1="555.9" x2="211.4" y2="555.9" gradientTransform="matrix(1 0 0 1 0 20)">
		<stop  offset="0" style="stop-color:#F55C11;stop-opacity:0.3"/>
		<stop  offset="1" style="stop-color:#F55C11"/>
	</linearGradient>
	<circle class="st6" cx="189.9" cy="575.9" r="21.5"/>
	<circle class="st7" cx="190.2" cy="576.2" r="5.2"/>
	
		<linearGradient id="SVGID_7_" gradientUnits="userSpaceOnUse" x1="1321.217" y1="777.0318" x2="1555.9089" y2="487.2101" gradientTransform="matrix(1 0 0 1 0 20)">
		<stop  offset="0" style="stop-color:#7A2C05"/>
		<stop  offset="1" style="stop-color:#F55C11"/>
	</linearGradient>
	<path class="st8" d="M1392.1,787.1l-181.3-194.4c-20.7-22.2-19.5-57,2.7-77.7l65.8-61.4c22.2-20.7,57-19.5,77.7,2.7l309,330.8
		L1392.1,787.1L1392.1,787.1z"/>
</g>
<linearGradient id="SVGID_8_" gradientUnits="userSpaceOnUse" x1="1174.3" y1="181.4" x2="1360.7" y2="181.4" gradientTransform="matrix(1 0 0 1 0 20)">
	<stop  offset="0" style="stop-color:#F55C11;stop-opacity:0.4"/>
	<stop  offset="1" style="stop-color:#F55C11"/>
</linearGradient>
<circle class="st9" cx="1267.5" cy="201.4" r="93.2"/>
<linearGradient id="SVGID_9_" gradientUnits="userSpaceOnUse" x1="1268.4" y1="235.9" x2="1268.4" y2="128.9" gradientTransform="matrix(1 0 0 1 0 20)">
	<stop  offset="0" style="stop-color:#F55C11"/>
	<stop  offset="1" style="stop-color:#F55C11"/>
</linearGradient>
<circle class="st10" cx="1268.4" cy="202.4" r="53.5"/>
<circle class="st7" cx="1267.5" cy="202.4" r="7.5"/>
</svg>
