<svg id="Capa_1" enable-background="new 0 0 512 512" height="512" viewBox="0 0 512 512" width="512" xmlns="http://www.w3.org/2000/svg"><path d="m437.028 74.912c-100.039-99.879-261.951-99.887-361.997 0-100.038 99.88-100.045 261.536 0 361.424 97.127 96.972 244.742 85.551 266.926 49.325 23.758-38.8-44.734-93.443-25.693-129.161 10.518-19.73 35.448-18.406 75.258-13.88 46.21 5.254 120.478 15.602 120.478-86.996 0-68.263-26.626-132.442-74.972-180.712z" fill="#fe9022"/><path d="m512 255.624c0 102.595-74.271 92.253-120.476 86.992-39.815-4.522-64.742-5.85-75.261 13.886-19.038 35.719 49.454 90.356 25.697 129.16-9.519 15.544-42.125 26.515-83.93 26.335v-511.988c64.822.499 129.485 25.467 178.999 74.903 48.344 48.268 74.971 112.448 74.971 180.712z" fill="#fd6328"/><ellipse cx="160.041" cy="344.473" fill="#9cdd2b" rx="59.993" ry="59.898"/><ellipse cx="382.015" cy="205.709" fill="#fed941" rx="59.993" ry="59.898"/><ellipse cx="258.029" cy="119.855" fill="#ee3616" rx="59.993" ry="59.898"/><path d="m318.023 119.855c0 33.024-26.917 59.898-59.993 59.898v-119.796c33.076 0 59.993 26.875 59.993 59.898z" fill="#cb0010"/><ellipse cx="132.044" cy="197.723" fill="#19c0ef" rx="59.993" ry="59.898"/></svg>