<?xml version="1.0" encoding="utf-8"?>
<!-- Generator: Adobe Illustrator 22.1.0, SVG Export Plug-In . SVG Version: 6.00 Build 0)  -->
<svg version="1.1" id="_x38_69a981d-5394-490d-9104-6940aaebaf2b"
	 xmlns="http://www.w3.org/2000/svg" xmlns:xlink="http://www.w3.org/1999/xlink" x="0px" y="0px" viewBox="0 0 1003.9 836.8"
	 style="enable-background:new 0 0 1003.9 836.8;" xml:space="preserve">
<style type="text/css">
	.st0{opacity:0.1;fill:#844517;enable-background:new    ;}
	.st1{opacity:0.1;fill:#054FE6;enable-background:new    ;}
	.st2{fill:#054FE6;}
	.st3{fill:url(#SVGID_1_);}
	.st4{fill:#4C4981;}
	.st5{opacity:0.1;enable-background:new    ;}
	.st6{fill:#FCE8CF;}
	.st7{fill:#444053;}
	.st8{fill:#F7D8B7;}
	.st9{fill:#FFFFFF;}
	.st10{fill:#F5AD64;}
	.st11{fill:#1E394C;}
	.st12{fill:#043599;}
	.st13{opacity:0.1;fill:#0658FF;enable-background:new    ;}
</style>
<title>questions</title>
<ellipse class="st0" cx="713.5" cy="826.7" rx="102.6" ry="10.1"/>
<path class="st1" d="M439.5,12.2c45.2-16.8,100.2-2.3,147.1,18.7c147.5,66.2,255,191.8,340.4,319.8c30.9,46.3,60.3,94.7,71.9,146.4
	c23.7,105.3-38.1,214.2-143,252.4c-35.7,13-74.9,18.3-114.2,21.3c-69.8,5.3-142.1,3.2-211.4-16.4c-49.4-14-96.1-36.5-141-61.4
	C264.2,623.5,149.9,533.2,67.5,422.9C31.4,374.6,0.9,320,0,264.2s35.5-111.9,95.3-121.4c24.7-3.9,50.9,0.2,76.4,4.4
	c37.6,6.2,75.7,12.7,112.9,10c38.4-2.8,88.3-17.8,95.3-54.5C387.4,63.4,394.4,29,439.5,12.2z"/>
<path class="st2" d="M244,768.8c0,0,48.3-2.9,42.6,30.9c0,0,1.1,6-4.3,8.7c0,0-0.1-2.5-5-1.7c-1.7,0.3-3.5,0.4-5.2,0.3
	c-2.4-0.2-4.6-1.1-6.4-2.7l0,0c0,0-13.6-5.6-18.8-27.8c0,0-3.9-4.8-3.8-6.1l8.1,3.5c0,0-2.8,5.9-0.6,10.8c0,0,0.3-10.5,1.8-10.3
	c0.3,0,4.2,2,4.2,2s-4.8,10.2-1.2,17.7c0,0-1.4-12.6,2.7-16.9l5.7,3.3c0,0-5.6,10.6-1.8,19.2c0,0-1-13.2,3-18.4l5.2,4
	c0,0-5.3,10.4-2,17.6c0,0,0.4-15.4,3.2-16.6c0,0,4.5,4,5.2,5.7c0,0-3.6,7.6-1.4,11.5c0,0,1.4-10.3,2.5-10.3c0,0,4.5,6.8,5,11.5
	c0,0-0.2-6.9-3.9-12.1c0,0,4.4,0.8,6.9,3.6c0,0-0.7-4.8-8-5.2c0,0-3.7-5.2-4.8-5.5c0,0,7.3-0.6,11.7,1.4c0,0-3.9-4.5-13.1-2.5
	l-5.1-4.2c0,0,9.6-1.3,13.7,0.1c0,0-4.7-4-15.1-1.1l-5.6-3.3c0,0,8.2-1.8,13.1-1.1c0,0-5.2-2.8-14.7,0.2l-4-1.8c0,0,6-1.2,7.8-1.4
	s1.9-0.7,1.9-0.7c-3.8-0.6-7.7-0.2-11.3,1.2C252.3,772.4,243.9,769.4,244,768.8z"/>
<ellipse class="st1" cx="277.3" cy="811.4" rx="34.2" ry="5.8"/>
<path class="st2" d="M179.4,746.1c0,0,27.2-1.6,24,17.4c0.3,2-0.6,4-2.4,4.9c0,0,0-1.4-2.8-0.9c-1,0.2-2,0.2-3,0.1
	c-1.3-0.1-2.6-0.6-3.6-1.5l0,0c0,0-7.6-3.2-10.6-15.7c0,0-2.2-2.7-2.1-3.4l4.6,2c0,0-1.6,3.3-0.3,6.1c0,0,0.1-6,1-5.8
	c0.2,0,2.4,1.2,2.4,1.2s-2.7,5.8-0.7,10c0,0-0.8-7.1,1.5-9.5l3.2,1.9c0,0-3.1,6-1,10.8c0,0-0.5-7.5,1.7-10.4l2.9,2.3
	c0,0-3,5.9-1.1,9.9c0,0,0.2-8.7,1.8-9.3c0,0,2.6,2.3,3,3.2c0,0-2,4.3-0.8,6.5c0,0,0.8-5.8,1.4-5.8c0,0,2.5,3.8,2.8,6.5
	c-0.1-2.4-0.9-4.8-2.2-6.8c1.5,0.3,2.8,1,3.9,2c0,0-0.4-2.7-4.5-3c0,0-2.1-2.9-2.7-3.1c0,0,4.1-0.3,6.6,0.8c0,0-2.2-2.6-7.4-1.4
	l-2.9-2.4c0,0,5.4-0.7,7.7,0.1c0,0-2.6-2.3-8.5-0.6l-3.1-1.9c2.4-0.5,4.9-0.7,7.4-0.6c0,0-2.9-1.6-8.3,0.1l-2.2-1
	c0,0,3.4-0.7,4.4-0.8s1-0.4,1-0.4c-2.1-0.4-4.4-0.1-6.4,0.7C184,748.2,179.3,746.4,179.4,746.1z"/>
<ellipse class="st1" cx="198.1" cy="770" rx="19.3" ry="3.3"/>
<path class="st2" d="M848.8,764.4c0,0,32.8-2,29,21c0.4,2.4-0.8,4.8-2.9,5.9c0,0-0.1-1.7-3.4-1.1c-1.2,0.2-2.4,0.3-3.6,0.2
	c-1.6-0.1-3.1-0.7-4.4-1.8l0,0c0,0-9.2-3.8-12.8-18.9c0,0-2.7-3.3-2.5-4.1l5.5,2.4c0,0-1.9,4-0.4,7.3c0,0,0.2-7.2,1.2-7
	c0.2,0,2.9,1.4,2.9,1.4s-3.3,7-0.8,12c0,0-0.9-8.6,1.8-11.5l3.9,2.3c0,0-3.8,7.2-1.2,13.1c0,0-0.7-9,2-12.5l3.5,2.8
	c0,0-3.6,7.1-1.4,12c0,0,0.3-10.5,2.2-11.3c0,0,3.1,2.7,3.6,3.8c0,0-2.5,5.2-0.9,7.9c0,0,0.9-7,1.7-7c0,0,3.1,4.6,3.4,7.8
	c-0.1-2.9-1.1-5.8-2.7-8.2c1.8,0.3,3.4,1.2,4.7,2.4c0,0-0.5-3.3-5.5-3.6c0,0-2.5-3.5-3.2-3.7c0,0,5-0.4,8,0.9c0,0-2.7-3.1-8.9-1.7
	l-3.5-2.8c0,0,6.5-0.9,9.3,0.1c0,0-3.2-2.7-10.3-0.7l-3.8-2.3c0,0,5.6-1.2,8.9-0.8c0,0-3.5-1.9-10,0.2l-2.7-1.2c0,0,4.1-0.8,5.3-0.9
	s1.3-0.5,1.3-0.5c-2.6-0.4-5.2-0.1-7.7,0.8C854.5,766.9,848.7,764.8,848.8,764.4z"/>
<ellipse class="st1" cx="871.4" cy="793.4" rx="23.2" ry="3.9"/>
<linearGradient id="SVGID_1_" gradientUnits="userSpaceOnUse" x1="795.2285" y1="795.4097" x2="795.2285" y2="326.947" gradientTransform="matrix(1 0 0 1 -98.04 36.39)">
	<stop  offset="0" style="stop-color:#808080;stop-opacity:0.25"/>
	<stop  offset="0.54" style="stop-color:#808080;stop-opacity:0.12"/>
	<stop  offset="1" style="stop-color:#808080;stop-opacity:0.1"/>
</linearGradient>
<path class="st3" d="M816.1,521.6c-0.6-3.5-1-7.1-1.1-10.7c0-4.3-5.8-8.1-5.8-8.1s-3.6-8.3-6-9.6s-9.8-12.1-9.8-12.1
	c-0.1-2.2-0.9-4.2-2.2-5.9c-2.2-2.9-4.2-6-6.1-9.2l0,0c-1-1.2-0.5-2.1-2-9.2c-0.1-0.4-0.2-0.7-0.3-1.1c0-0.2-0.1-0.3-0.2-0.5
	c3.2-3.3,4.3-8.1,2.8-12.4c-0.3-0.8-0.8-1.6-1.4-2.2c-1.7-1.4-4.4-0.8-6.1-2.1l1.8-8.2c0.4-2,0.7-4.5-1.1-5.6
	c-0.7-0.3-1.3-0.5-2.1-0.7c-3-1-4.7-4.2-5.5-7.2c-0.7-2.9-1-6-0.6-9c0.3-2.9,1.2-5.7,1.5-8.6c0.6-5.4-0.7-10.8-3.7-15.3
	c-1.1-2-2.8-3.6-4.8-4.6c-1.8-0.8-4-1-5.7-2c-3.7-2.4-3.5-8-6.5-11.2s-8.2-3.2-12.6-2.1c-4.3,1.1-8.6,3-13.1,2.5
	c-2.9-0.3-5.5-1.6-8.4-1.9c-0.8-0.1-1.6,0-2.5,0.1v-0.1c-2.1,0.4-4.1,1.6-4.6,3.6c-0.1,0.5-0.2,1-0.1,1.5c0,1.2,0.3,2.4,0.3,3.5
	c0.1,0.9-0.2,1.8-0.8,2.5c-0.6,0.6-1.4,0.9-2,1.6c-0.5,0.5-0.8,1.2-0.7,1.8c0,1.8,2.2,3.3,3.7,4.1h0.1c-0.4,0.4-0.8,0.8-1.2,1.2
	c-4.3,4.8-6.6,11-6.6,17.5c0.1,10.6,6.5,20.2,16.2,24.4l-0.2,0.7c-0.4,1.3-0.9,2.5-1.5,3.8c-2.1-0.7-4.4-0.4-6.3,0.7
	c-2.9,2-8.5,1.8-9.9,1.5s-17-2.3-18.2-1.8s-3.7-1.7-5.3,1.2s-2.4,4.5-4,5.3s-4.5,3.1-4.1,3.5s-4.1,3.4-4.1,3.4s-3.8,4-6.1,4.5
	c-2.2,0.5-7,3.6-7,3.6l-5.5,4.3c0,0-4.1,0.6-2.8-2.2s-2.2-6.4-2.2-6.4s-7-14.1-7-17s-5.7-15.3-5.7-15.3l-0.7-0.1l-0.3-1
	c-1-3-2.4-6.6-3.5-8.7c-2-4-3.2-4.5-3.2-4.5s-24.1-18.1-39.7-12.6c-15.6,5.5,28.5,21.9,32.5,23.7c1.4,0.6,2.4,2.5,3.1,4.8
	c-3.5,1.7-6.5,4.4-8.5,7.7c0,0,9.6,21.2,9.8,26.5s6.6,20,6.6,20s2.4,10.9,15.1,10.3c0,0,17.6,3.2,21.5,0s7.3-5.8,9.2-6.2
	c1.4-0.5,2.6-1.3,3.5-2.5c0,0-5.8,36.8-8.7,39.9c-2.9,3.1-28.1,44.5-19.1,51.8c7.2,5.6,14.8,10.6,22.7,15c0.8,0.4,3.1-3.5,6.4-6.2
	c0,0.7,0,1.4,0,2.1c0.1,14.7,2,37,4.7,42c4,7.3,2.4,21.6,2.4,21.6c2.1,1,4.4,1.5,6.7,1.6c0.1,0.5,0.3,1,0.4,1.5
	c2.2,8.3,5.7,21.1,7.5,24.5c2.7,5.2,4.7,21.5,4.7,21.5s1.6,16,1,18.2c-0.2,0.8,0.8,7.5,2.5,16l0,0c-1,11.5-2.9,33.6-3.2,41.7l0,0
	c0,0.2,0,0.3,0,0.4v0.1c0,0.1,0,0.2,0,0.3c0,0.2,0,0.3,0,0.5l0,0c0,0.5,0,1,0.1,1.5c0.1,0.8,0.1,1.5-0.2,2.3
	c-0.7,2.2-1.6,4.4-2.7,6.4c-0.5,1-0.9,2-1.2,3.1c-1,0.4-2.2,1.5-2.9,4.1c-1.2,4.8-3.1,18-3.1,18s-0.8,8.1-2.2,9.9s-3,13.3,7.6,14.8
	s15.1-5.6,15.1-5.6l-0.4-32.1v-0.1c0.2-0.3,0.4-0.6,0.5-0.9v-0.1c0.1-0.2,0.2-0.3,0.2-0.5l0.1-0.2l0.2-0.4v-0.1
	c1-3.1,1.3-6.3,0.9-9.5v-0.2v-0.2c0-0.1,0-0.2,0-0.2v-0.5c0-0.1,0-0.1,0-0.2c0-0.2,0-0.4,0.1-0.7s0-0.1,0-0.1l0.1-0.4v-0.2
	c0-0.1,0-0.3,0.1-0.4v-0.1c0.1-0.5,0.2-1,0.3-1.4v-0.1l0.2-0.5l0,0c0.2-0.5,0.3-1,0.5-1.5v0.1c0-0.2,0.1-0.3,0.2-0.5v-0.1
	c0.2-0.5,0.4-1,0.5-1.4v-0.1l0.2-0.4v-0.1l0.4-0.9l0,0l2.9,9c0,0,1.6,6.7,0.8,8.3s1,8.2,2.2,8.3l-1.2,8.3c-0.6,4.6-1,9.2-1.1,13.8
	c-0.1,0.5-0.2,1-0.2,1.3c-0.8,4.3,1.1,10.9,1.1,10.9c9.8,11.6,21.5,0.9,21.5,0.9s1.4-6.1,0-7.3s-0.8-5.6-0.8-5.6s0.6-10.9,0.7-18.9
	s-6.5-15-6.5-15l-0.4,0.3c-1.2-3.1-2.6-6.8-2.3-8.4c0.5-2.8-1.4-32.6-1.4-32.6c0.7-8,0.8-16,0.4-24l0,0c0.2-1.3,0.3-2.7,0.5-4
	c0.8-6.4,1.4-11.9,1.6-14.7l0,0v-0.3c0.1-0.8,0.1-1.3,0.1-1.6c0-1,0-2.1,0.1-3.4c0.2-3.4,0.8-7.3,0.8-7.3l2.6-15.8c0,0,2-7.7,4.8-12
	l0.3-0.5l0,0c0.1-0.2,0.2-0.4,0.3-0.6v-0.1c0.1-0.2,0.2-0.4,0.3-0.7v-0.1c0.4-0.8,0.8-1.7,1.3-2.7c0-0.1,0.1-0.2,0.1-0.2l0.3-0.8
	c0-0.1,0.1-0.2,0.1-0.3s0.2-0.5,0.3-0.8c0-0.1,0.1-0.2,0.1-0.3c0.1-0.3,0.3-0.6,0.4-0.9l0.2-0.5c0.1-0.2,0.2-0.5,0.3-0.7l0.2-0.6
	c0.1-0.2,0.1-0.3,0.2-0.5l0.3-0.7c0-0.1,0.1-0.2,0.1-0.3c0.7-1.8,1.4-3.5,2-5.1l0,0c0.2-0.5,0.4-1,0.5-1.4
	c6.4,0.4,10.7,0.7,10.7,0.7s2-14.3,1.4-23.8c-0.4-6.4,0.8-14.5,1.6-19c0.1-0.5,0.2-0.9,0.2-1.3l0.2,0.1c3.1,2.5,5.3-5.6,5.3-5.6
	s-0.8-7.5-2-16.7l-0.1-0.9c1.8,0.4,3.6,0.7,5.4,0.8c0,0,1-0.1,2.4-0.3c3.8,2.2,7.8,4,11.9,5.4l6.6-12.2c1.2-2.5,2.7-4.9,4.3-7.2
	c2-2.5,9.1-10.3,8.9-11.8s2.4-9.9,4.8-13.7S816.2,522.2,816.1,521.6z M788.5,530.9c-2.6,1.1-5.1,7.2-5.2,9.1s-2.9,9.9-5.7,10.9
	c-2.6,0.9-7.7,5.5-8.5,6.3c-0.8,0.1-1.8,0.2-2.7,0.3c-1.1-7.7-2.2-14.1-2.9-15.4c-2-3.7,2.2-15.4,2.2-15.4s0.4-11.9,3-14.7
	s2-9.9,2-9.9s0.6-2.9,0.9-4.3s3.7,0,3.7,0l0,0c0,0,6.7,3.7,7.7,9.2c1,5.5,8.3,15.1,8.3,15.1s-1.1,3.3,0,5S791.1,529.8,788.5,530.9z"
	/>
<path class="st4" d="M609,426.2c4.2-6.9,12-10.6,20-9.4v14.3h-8.7l-6.8-1.7L609,426.2z"/>
<path class="st5" d="M609,426.2c4.2-6.9,12-10.6,20-9.4v14.3h-8.7l-6.8-1.7L609,426.2z"/>
<path class="st6" d="M629.6,420.6L619,428c0,0-0.1-1.5-0.4-3.5c-0.5-3.9-1.7-9.7-4.3-10.8c-3.9-1.7-47.4-18.1-32-23.6
	s39.1,12.5,39.1,12.5s1.2,0.4,3.2,4.5c1,2.1,2.4,5.7,3.4,8.7C629,418.5,629.6,420.6,629.6,420.6z"/>
<polygon class="st4" points="714.7,432.1 715.9,431.5 719.3,435.4 716.5,441.3 711.8,439.4 712.9,434.7 "/>
<path class="st7" d="M698.6,779.4c0,0-3.1-0.4-4.3,4.4s-3.1,18-3.1,18s-0.7,8.1-2.2,9.9s-2.9,13.3,7.5,14.8s14.9-5.6,14.9-5.6
	l-0.4-32.1L698.6,779.4z"/>
<path class="st7" d="M734.8,780.8c0,0,6.5,7,6.4,14.9s-0.7,18.8-0.7,18.8s-0.6,4.4,0.7,5.6s0,7.3,0,7.3s-11.5,10.7-21.2-0.9
	c0,0-1.9-6.6-1.1-10.9s3-23.4,3-23.4L734.8,780.8z"/>
<path class="st8" d="M751,634.6c0,0-6.6,18.5-9.4,22.7s-4.8,12-4.8,12l-2.6,15.8c-0.5,3.5-0.8,7.1-0.9,10.6
	c0.1,3.5-6.4,55.3-6.4,55.3l-10.3,13.1c0,0-4.5,9.2-3.8,13s-0.5,9.9-2,11.7c0,0-0.2,12-0.6,14.7s1.3,10.3,0,11.6s-19.3,0.7-19.8-1.5
	s2.2-12.8,2.2-12.8l1.6-10.3c0,0,3.2-5.6,2.5-7.5s1.3-6.1,1.5-6.5s3.4-6.4,2.8-8.7s3.8-51.7,3.8-51.7l12.6-88.4L751,634.6z"/>
<path class="st6" d="M740,818.5c0.1,1.3-17.2,3.3-19.7,1.8s0-19.7,0-19.7l1.1-8.3c-1.2-0.1-3-6.7-2.2-8.3s-0.7-8.3-0.7-8.3l-2.9-9
	l-1.8-5.5c-2.9-6.3-7-24.3-9.6-37.8c-1.6-8.4-2.7-15.1-2.4-15.9c0.6-2.2-1-18.2-1-18.2s-2-16.3-4.6-21.4c-1.8-3.4-5.3-16.2-7.4-24.4
	c-1.1-4.2-1.9-7.3-1.9-7.3s18.5-1.5,29.7-2.1c5.2-0.2,8.8-0.3,8.3,0.1s-0.5,2.7-0.5,5.9c0,8.4,1.2,23.2,2.5,27.1
	c1.7,5.5,3.4,22,2.7,23.6s-0.5,12.2-0.5,12.2c1.3,4.3,2,8.8,2.2,13.3c0.4,8,0.3,15.9-0.4,23.9c0,0,1.8,29.7,1.3,32.5
	s3.9,11.6,3.9,13.3s1.2,13.3,1.2,13.3S740,817.2,740,818.5z"/>
<path class="st6" d="M749.7,461.3l-2.1,2.3l-1.4,1.5l-8,8.6l-20.7,2.3l-11-2.9l-2.7-0.7c0,0,0-5.5,0.5-12.1
	c0.7-8.5,2.4-18.8,6.4-21.6c2-1.6,3.6-3.6,4.7-5.9c0.8-1.6,1.5-3.2,2-4.9c0.1-0.2,0.1-0.4,0.2-0.7c0.9-3,1.5-6,1.9-9.1
	c0,0,2.6-1.5,6.3-3.2c9.6-4.5,26.1-10.6,20.3,3.2c-0.8,2-1.6,4.1-2.2,6.2c-0.1,0.3-0.2,0.6-0.2,0.9c-1.9,7.7-0.7,12.3,0.8,14.9l0,0
	c0.2,0.4,0.5,0.9,0.8,1.3c0.4,0.5,0.9,1,1.4,1.4l2.4,15.1l0.2,1.2L749.7,461.3z"/>
<path class="st5" d="M746.2,418.8C745.1,421.4,746.7,416.6,746.2,418.8c-4.4,3.1-14.6,11.9-20.4,11.9c-3.9,0-5.1-0.7-8.4-2.2
	c1-3.2,1.7-6.4,2.2-9.7C719.5,418.8,754.1,399.7,746.2,418.8z"/>
<path class="st6" d="M755,402.7c0,13.6-10.3,25.1-23.9,26.5c-0.9,0.1-1.8,0.1-2.8,0.1c-14.7,0-26.7-11.9-26.7-26.7
	c0-14.7,11.9-26.7,26.7-26.7C743,376,755,388,755,402.7L755,402.7z"/>
<path class="st5" d="M758.8,520.9l-3.8,9.9c0,0-3.1,0.1-7.9,0.3c-16.3,0.5-52.1,1.2-53.7-3c-0.4-1.1-0.5-2.2-0.6-3.3
	c-0.2-6.4,2.8-16.2,2.8-16.2s1.7-19.6,1.7-20.4s-1.5-14.6-1.5-14.6l2.9-11l8.2-5.8c0,0,3.7,5.6,5.9,6.1s5.1,3.2,5.1,3.2
	s7.2,4.4,9.5,2c2.3-2.5,20.4-13.2,20.4-13.2l9.5,10.5L758.8,520.9z"/>
<path class="st9" d="M758.8,522.4l-3.8,9.9c0,0-3.1,0.1-7.9,0.3h-0.5c-2.1,0.1-4.5,0.1-7,0.2c-12.9,0.3-30.7,0.4-40-1
	c-3.5-0.5-5.8-1.2-6.2-2.2c-0.2-0.6-0.4-1.2-0.4-1.8c-0.1-0.5-0.1-1-0.1-1.5c-0.2-6.4,2.8-16.2,2.8-16.2s1.7-19.6,1.7-20.4
	s-1.5-14.6-1.5-14.6l2.9-11l5.6-3.9l2.6-1.8c0.9,1.3,1.8,2.5,2.8,3.7c0.8,1.1,1.8,1.9,3.1,2.4c2.2,0.5,5.1,3.2,5.1,3.2
	s7.2,4.4,9.5,2c1.8-1.9,12.8-8.6,17.8-11.7c1.6-1,2.6-1.5,2.6-1.5l1.3,1.4l8.3,9.1L758.8,522.4z"/>
<path class="st5" d="M629.6,420.6L619,428c0,0-0.1-1.5-0.4-3.5c5.3-2.2,8.5-7.1,9.4-8.7C629,418.5,629.6,420.6,629.6,420.6z"/>
<path class="st10" d="M667,445.9l-2.3-0.6c0,0-3.8,4-6,4.5s-6.8,3.5-6.8,3.5l-5.4,4.3c0,0-4,0.6-2.8-2.2s-2.2-6.4-2.2-6.4
	s-6.8-14.1-6.8-17s-5.7-15.3-5.7-15.3s-7.1,13.8-20.1,9.4c0,0,9.4,21.1,9.7,26.4s6.5,19.9,6.5,19.9s2.3,10.9,14.9,10.3
	c0,0,17.4,3.2,21.2,0s7.2-5.8,9-6.1c1.8-0.4,3.4-2.4,3.4-2.4v-14.5L667,445.9z"/>
<path class="st5" d="M645.3,459.7c0,0,3.1,11.4,1.1,12.6L645.3,459.7z"/>
<path class="st5" d="M747,532.5c-16.3,0.5-52.1,1.2-53.7-3c-0.4-1.1-0.5-2.2-0.6-3.3l53.2,2.8L747,532.5z"/>
<path class="st5" d="M751,634.6c0,0-1,2.8-2.4,6.4c-6.8-0.4-15.7-0.8-24.2-0.9c-3,0-5.9,0-8.7,0.1c-5.9,0.2-11,0.7-14.2,1.6
	c-4.1,1.3-8.4,1.8-12.7,1.6c-1.1-4.2-1.9-7.3-1.9-7.3s18.5-1.5,29.7-2.1l0.9-6.2L751,634.6z"/>
<path class="st2" d="M765.4,589.8l-2.1,4.4c0,0-0.3,1.3-0.7,3.4c-0.8,4.5-2,12.6-1.5,19c0.6,9.4-1.3,23.7-1.3,23.7s-45-3.8-58.2,0
	s-19.7,0-19.7,0s1.6-14.2-2.3-21.5c-2.7-5-4.5-27.3-4.6-42c0-6.8,0.3-11.9,1.2-12.9c2.7-3.3,14.2-36.3,14.2-36.3l2.6,0.1l7,0.4
	l39.8,2.1l6.2,0.3l0.7,2L765.4,589.8z"/>
<path class="st4" d="M785.2,575.2l0.4,3.9c0,0-19.7-6.4-18.7-14.3s0-7,0-7l15.8,1.3L785.2,575.2z"/>
<path class="st5" d="M785.2,575.2l0.4,3.9c0,0-19.7-6.4-18.7-14.3s0-7,0-7l15.8,1.3L785.2,575.2z"/>
<path class="st5" d="M658.4,462.9c2,1.7,4.4,2.9,6.9,3.6c-0.7-0.2-1.4-0.5-2-1c-1.4-1-2.8-2.1-4.1-3.2c-1.1-0.9-2.5-2.3-3.8-2.6
	C656.3,460.9,657.3,461.9,658.4,462.9z"/>
<path class="st5" d="M658.7,468c0.6,0.7,1.1,1.5,1.5,2.4c0.6,2.5,0.6,5.1-0.1,7.6l-3.2-7.6c-0.5-1.3-1.1-2.6-1.8-3.8
	c-0.3-0.5-2.1-2.7-1.9-3.2C653.9,462,658.1,467.3,658.7,468z"/>
<path class="st5" d="M746.9,510.2c2.2-0.3,4.2-1.2,5.8-2.7c-3.2,0.4-6.3,1.7-9.5,2.4c-3,0.7-6.1,0.4-8.9-0.8
	C737.9,510.9,743,510.9,746.9,510.2z"/>
<path class="st5" d="M737.7,487.8c-0.6,0.1-1.2-0.1-1.7-0.4c-2.4-1.4-4.8-2.9-7.2-4.4c-2.3-1.5-5.1-3-7.1-4.9
	C726.6,482.5,731.1,486.2,737.7,487.8z"/>
<path class="st5" d="M744.5,513.8c1.3,0.1,2.6,0,3.8-0.3c1.3-0.3,2.4-1,3.1-2.1c-0.5-0.1-0.9,0-1.3,0.2c-3.9,1.6-8.1,2.1-12.3,1.5
	C739.8,513.9,742.4,513.8,744.5,513.8z"/>
<path class="st5" d="M721.3,570.6c-2.5,0.8-5.2,1.3-7.8,1.5c-2.1,0.1-4.1,0.1-6.2-0.1l-10-0.6l-5-0.3c-0.6,0-3,0-1.8-1.2
	c0.6-0.6,3.9-0.2,4.8-0.2c1.7-0.1,3.3-0.1,5-0.1c3.3,0,6.6,0,9.9,0.2C714,569.9,717.6,570.2,721.3,570.6z"/>
<path class="st5" d="M709.7,575.5c-1.7-0.1-3.9,0.9-5.6,1.2c-2,0.2-3.9,0.3-5.9,0.2c-3.9-0.1-7.7-0.9-11.4-2.3
	C694.4,575,702.1,575.2,709.7,575.5z"/>
<path class="st5" d="M688.3,580.8c0.7,0.1,1.5,0.3,2.2,0.6c4.2,1.2,8.7,0.1,13-0.9c-1.1,1.6-3,2.3-4.9,2.7c-3.1,0.8-6.4,0.9-9.6,0.3
	c-1-0.2-3.5-0.6-4-1.6C684.1,580.4,687.4,580.6,688.3,580.8z"/>
<path class="st5" d="M712,588.6c1.3,0.3,2.5,0.6,3.7,1c4.8,1.2,9.7-0.4,14.5-1.5c5.7-1.3,11.6-1.8,17.5-1.6c-1,0-2.7,0.9-3.8,1.2
	c-1.3,0.4-2.7,0.8-4.1,1.1c-2.7,0.7-5.4,1.2-8.2,1.6c-5.6,0.8-11.2,1-16.8,0.7c-2.6-0.1-7,0.1-9.2-1.2
	C707.6,588.9,709.8,588.4,712,588.6z"/>
<path class="st5" d="M713.8,437.8c0,0,0.2,11.3-1.6,16.4c-0.6,1.6-1.5,4.5-2.5,7.9c-1.1,3.7-2.2,7.8-3.1,11
	c-0.9,3.2-1.5,5.4-1.5,5.4s-4.1,33.6-5.2,49.7c0,0.3,0,0.6-0.1,0.8c-0.1,0.9-0.2,1.8-0.3,2.8c-2.4,15.9-16.1,40.5-20.7,42.4
	c-1.4,0.7-2.8,1.6-3.9,2.7c0-6.8,0.3-11.9,1.2-12.9c2.7-3.3,14.2-36.3,14.2-36.3l2.6,0.1c-0.1-0.5-0.1-1-0.1-1.5
	c-0.2-6.4,2.8-16.2,2.8-16.2s1.7-19.6,1.7-20.4s-1.5-14.6-1.5-14.6l2.9-11l5.6-3.9c0.7-8.5,2.4-18.8,6.4-21.6c2-1.6,3.6-3.6,4.7-5.9
	c0.8,0.1-0.7-0.6-0.7-0.6L713.8,437.8z"/>
<path class="st10" d="M715.9,431.5c-2.1-0.7-4.3-0.4-6.2,0.7c-2.8,2-8.3,1.8-9.8,1.5s-16.8-2.3-18-1.8s-3.7-1.7-5.3,1.2
	s-2.3,4.5-3.9,5.2c-1.6,0.7-4.4,3.1-4,3.5s-4,3.4-4,3.4l8.9,29c0,0-5.8,36.7-8.6,39.9c-2.8,3.2-27.8,44.4-18.8,51.7
	c7.1,5.6,14.6,10.6,22.4,15c1,0.5,4.5-6.1,9.4-8.2s20.1-29.6,21-45.2s5.3-50.5,5.3-50.5s5.3-19.1,7.1-24.2s1.6-16.4,1.6-16.4
	L715.9,431.5z"/>
<path class="st5" d="M765.4,589.8l-2.1,4.4c0,0-0.3,1.3-0.7,3.4c-0.4,0-0.7-0.2-1-0.5c-3.1-2.5-21-20.9-21.9-37.3
	c-0.6-12.1-0.3-22.5-0.1-27.2c0.1-1.5,0.1-2.3,0.1-2.5l0,0c0,0,13.9-16.9,12.3-22.9s-5.3-38-5.3-38l-0.5-4.2l-0.9-7.1l-2.2-17.2
	l2.3,0.5c0.4,0.5,0.9,1,1.4,1.4l2.4,15.1l8.3,9.1l1.3,55.4l-3.8,9.9c0,0-3.1,0.1-7.9,0.3h-0.5L765.4,589.8z"/>
<path class="st10" d="M773.1,498.4c0,0-3.4-1.3-3.7,0s-0.9,4.3-0.9,4.3s0.6,7.1-2,9.9s-3,14.7-3,14.7s-4.1,11.7-2.2,15.4
	c0.7,1.3,1.8,8,2.9,16c0.7,5,1.4,10.5,2,15.5c1.1,9.1,1.9,16.7,1.9,16.7s-2.2,8.1-5.3,5.6s-21-20.9-21.9-37.3
	c-0.6-11.5-0.4-21.5-0.2-26.4c0.1-2.1,0.2-3.3,0.2-3.3s13.9-16.9,12.3-22.9s-5.3-38-5.3-38l-0.6-5l-0.7-5.3l-0.2-1.2l-2.2-17l0,0
	c0.4,0.1,14.1,3.2,15.9,5s13,4.4,13,4.4c3.4,0.9,6.1,3.7,6.9,7.1c0.1,0.3,0.2,0.7,0.3,1.1c1.5,7.1,1,8,2,9.2
	S773.1,498.4,773.1,498.4z"/>
<path class="st5" d="M766.4,574.2c-5-1-12.4-3.3-12.2-8.4c0.2-4.8,5.9-6.5,10.2-7.1C765,563.6,765.7,569.1,766.4,574.2z"/>
<path class="st6" d="M781.9,571.6c-0.2,0.4-1,0.8-2.1,1.1c-2.7,0.6-5.4,1.1-8.1,1.3c0,0-17-1.3-16.8-9.1c0.2-5.5,7.9-7,12.2-7.3
	c1-0.1,1.9-0.1,2.9-0.1C769.9,557.6,782.6,570,781.9,571.6z"/>
<path class="st5" d="M781.9,571.6c-0.2,0.4-1,0.8-2.1,1.1c-4.4-5.9-10.6-13.5-13.6-14.2l0.9-0.8c1-0.1,1.9-0.1,2.9-0.1
	C769.9,557.6,782.6,570,781.9,571.6z"/>
<path class="st10" d="M777.6,466.1l5,0.7c1.8,3.2,3.8,6.2,6,9.2c1.3,1.7,2.1,3.7,2.2,5.9c0,0,7.3,10.9,9.7,12.1s5.9,9.5,5.9,9.5
	s5.8,3.8,5.8,8.1c0.1,3.6,0.5,7.1,1.1,10.6c0.1,0.6-0.8,8.2-3.3,12s-4.9,12.2-4.8,13.7s-6.8,9.3-8.8,11.7c-1.6,2.3-3.1,4.7-4.3,7.2
	l-6.5,12.2c0,0-13.7-20.2-18.7-21.3c0,0,5.6-5.4,8.4-6.4s5.5-9,5.6-10.9s2.6-8,5.1-9s3.9-2.2,2.8-3.9s0-5,0-5s-7.2-9.5-8.2-15
	s-7.6-9.2-7.6-9.2l-3.8-9.3L777.6,466.1z"/>
<path class="st5" d="M795.8,511.7c2.8-2.3,6.2-3.7,9.9-3.7c-2.3,0.4-4.8,0.9-6.5,2.5c-0.7,0.7-1.3,1.5-1.8,2.3
	c-0.6,0.8-5.3,6.8-6,5.9C790.2,517.3,794.8,512.5,795.8,511.7z"/>
<path class="st5" d="M784.7,505.9c1.5-0.1,2.9-1.1,3.5-2.5s1-2.8,1.1-4.3c0.4-2.5,0.9-5,1.5-7.4c0.4-1,0.3-2.1-0.2-3
	c-0.3-0.8-0.6-1.5-1.1-2.2c-0.9,1-1.2,3.3-1.5,4.7c-0.5,1.7-0.9,3.3-1.3,5C786.5,497,784.8,505.9,784.7,505.9z"/>
<path class="st5" d="M780.4,456.6c-0.5,0.6-1.1,1.2-1.7,1.7c-2,1.6-4.7,2.9-4.9,5.4c0.1,0.8,0,1.6-0.3,2.4c-0.6,1.1-2.2,1-3.5,0.8
	c-1.1-0.1-2.1-0.5-2.9-1.1c-1.3-1.1-1.4-3.1-2.4-4.5c-1.2-1.5-3.1-2.3-5-2.2c-1.9-0.1-3.7,0.4-5.6,0.4c-1.2,0.1-2.4,0-3.6-0.2
	c-0.4-0.1-0.8-0.1-1.2-0.2c-0.8-0.2-1.7-0.5-2.4-0.8c-0.4-0.2-0.8-0.3-1.2-0.6c-1.3-0.6-2.4-1.4-3.5-2.4c-1.8-1.7-3.3-4-3.2-6.5
	c0.1-1.5,0.8-2.9,1-4.5c0.8-4.3-2.1-8.4-5.2-11.5c-1.2-1.2-2.6-2.4-3.8-3.7c-1.9-1.8-3.5-4-4.5-6.4c-0.8-2.6-1.1-5.3-0.8-8
	s0.4-5.5,0.2-8.2c-0.9-9.7-9.2-17.2-17.5-21.2l-0.4-0.2c9.7-11.1,26.5-12.3,37.6-2.6c11.1,9.7,12.3,26.5,2.6,37.6
	c-1.3,1.5-2.7,2.8-4.3,4c-0.1,0.3-0.2,0.6-0.2,0.9c-1.9,7.7-0.7,12.3,0.8,14.9l0,0c0.4,0.1,14.1,3.2,15.9,5s13,4.4,13,4.4
	C776.8,450.3,779.5,453.1,780.4,456.6z"/>
<path class="st11" d="M706.3,378.1c0.5-0.6,1.4-1,1.9-1.6c1.7-1.9,0-5,0.6-7.4c0.7-2.8,4.1-4,6.9-3.7c2.8,0.3,5.5,1.6,8.3,1.9
	c4.4,0.5,8.6-1.4,12.9-2.5s9.4-1.2,12.4,2.1s2.7,8.8,6.4,11.2c1.7,1.1,3.8,1.2,5.7,2c2,1,3.7,2.6,4.8,4.6c2.9,4.5,4.2,9.9,3.6,15.3
	c-0.3,2.9-1.2,5.7-1.5,8.6c-0.3,3-0.1,6.1,0.6,9c0.8,3,2.4,6.2,5.4,7.2c0.7,0.2,1.4,0.4,2,0.7c1.7,1.1,1.5,3.6,1.1,5.6l-1.8,8.2
	c1.7,1.3,4.4,0.7,6,2.1c0.7,0.6,1.1,1.4,1.4,2.2c1.6,4.7,0.2,9.9-3.6,13.1c-2,1.6-4.7,2.9-4.9,5.4c0.1,0.8,0,1.6-0.3,2.4
	c-0.6,1.1-2.2,1-3.5,0.8c-1.1-0.1-2.1-0.5-2.9-1.1c-1.3-1.1-1.4-3.1-2.4-4.5c-1.2-1.5-3.1-2.3-5-2.2c-1.9-0.1-3.7,0.4-5.6,0.5
	c-4.3,0.2-8.6-1.4-11.8-4.3c-1.8-1.7-3.3-4-3.2-6.5c0.1-1.5,0.8-2.9,1-4.5c0.7-4.3-2.1-8.4-5.2-11.5c-3.1-3.1-6.8-5.9-8.3-10
	c-1.9-5.1-0.1-10.8-0.6-16.2c-0.9-9.7-9.2-17.2-17.5-21.2C707.3,383,704.2,380.6,706.3,378.1z"/>
<path class="st5" d="M771.7,462.1c-1.3-1.1-1.4-3.1-2.4-4.5c-1.2-1.5-3.1-2.3-5-2.2c-1.9-0.1-3.7,0.4-5.6,0.5
	c-4.4,0.2-8.6-1.3-11.8-4.3c-1.8-1.7-3.3-4-3.2-6.5c0.1-1.5,0.8-3,1-4.5c0.8-4.3-2.1-8.4-5.2-11.5c-3.1-3.1-6.8-5.9-8.3-10
	c-1.9-5.1,0-10.8-0.6-16.2c-0.9-9.7-9.2-17.2-17.5-21.2c-1.9-1-5.1-3.4-2.9-5.8c0.5-0.6,1.4-1,1.9-1.6c1.7-1.9,0-5,0.6-7.4
	c0.1-0.5,0.3-1,0.6-1.4c-2.1,0.4-4,1.6-4.5,3.6c-0.6,2.5,1.1,5.5-0.6,7.4c-0.6,0.6-1.4,0.9-1.9,1.5c-2.2,2.5,1,4.9,2.9,5.8
	c8.3,4.1,16.6,11.5,17.5,21.2c0.5,5.4-1.3,11.1,0.6,16.2c1.5,4.1,5.2,7,8.3,10s6,7.2,5.2,11.5c-0.4,1.5-0.8,2.9-1,4.5
	c-0.1,2.5,1.4,4.8,3.2,6.5c3.2,2.9,7.5,4.5,11.8,4.3c1.9-0.1,3.7-0.5,5.6-0.5c1.9-0.1,3.8,0.7,5,2.2c1,1.4,1.1,3.4,2.4,4.5
	c0.9,0.6,1.9,1,2.9,1.1c1.2,0.2,2.8,0.3,3.5-0.8c0.2-0.4,0.3-0.9,0.3-1.4C773.5,463.1,772.5,462.7,771.7,462.1z"/>
<path class="st12" d="M626.1,402.7H557v-68.2h69.2L626.1,402.7z M625.1,299.9H558c0-105.9,100.7-99.7,100.7-166.7
	c0-36.9-30.2-66.5-67.1-66.5s-67.1,31.9-67.1,67.5h-67.1C457.2,60.2,517.1,0.1,591.1,0c0.2,0,0.3,0,0.5,0
	c74.1,0,134.2,59.2,134.2,133.2C725.8,217,625.1,226.5,625.1,299.9L625.1,299.9z"/>
<path class="st13" d="M281.1,382.4h-17.8v-17.6h17.8V382.4z M280.9,355.9h-17.3c0-27.3,26-25.7,26-43c0-9.5-7.8-17.2-17.3-17.2l0,0
	c-9.5,0.2-17.1,7.9-17.3,17.4h-17.3c0.2-19.1,15.9-34.4,35-34.2c18.7,0.2,33.8,15.2,34.2,33.9C306.8,334.5,280.9,336.9,280.9,355.9
	L280.9,355.9z"/>
<path class="st13" d="M416.2,504.8h-17.8v-17.6h17.8V504.8z M416,478.3h-17.3c0-27.3,26-25.7,26-43c0-9.5-7.8-17.2-17.3-17.1l0,0
	c-9.5,0.2-17.2,7.9-17.4,17.4h-17.3c0.2-19.1,15.9-34.4,35-34.2c18.7,0.2,33.8,15.2,34.2,33.9C441.9,456.9,416,459.4,416,478.3z"/>
<path class="st13" d="M498.4,288.1h-12.9v-12.7h12.9V288.1z M498.2,268.9h-12.5c0-19.8,18.8-18.6,18.8-31.2
	c0-6.9-5.6-12.5-12.5-12.4l0,0c-6.9,0.1-12.4,5.7-12.5,12.6H467c-0.1-13.9,11.1-25.1,25-25.2s25.1,11.1,25.2,25
	C517,253.4,498.2,255.2,498.2,268.9z"/>
<path class="st13" d="M719.2,306h-7.3v-7.2h7.3V306z M719.1,295.2H712c0-11.2,10.6-10.5,10.6-17.6c0-3.9-3.1-7-7-7h-0.1
	c-3.9,0.1-7,3.2-7.1,7.1h-7.1c0.2-7.8,6.7-14,14.5-13.9c7.5,0.2,13.6,6.2,13.9,13.7C729.7,286.4,719.1,287.4,719.1,295.2z"/>
<path class="st13" d="M831,633.5h-7.3v-7.2h7.3V633.5z M830.9,622.7h-7.1c0-11.2,10.6-10.5,10.6-17.6c0-3.9-3.2-7-7.1-7
	c-3.9,0.1-7,3.2-7.1,7.1h-7.1c0.2-7.8,6.7-14,14.5-13.9c7.5,0.2,13.6,6.2,13.9,13.7C841.5,613.9,830.9,614.9,830.9,622.7
	L830.9,622.7z"/>
</svg>
