<?xml version="1.0" encoding="utf-8"?>
<!-- Generator: Adobe Illustrator 22.1.0, SVG Export Plug-In . SVG Version: 6.00 Build 0)  -->
<svg version="1.1" id="Layer_1" xmlns="http://www.w3.org/2000/svg" xmlns:xlink="http://www.w3.org/1999/xlink" x="0px" y="0px"
	 viewBox="0 0 494 494" style="enable-background:new 0 0 494 494;" xml:space="preserve">
<style type="text/css">
	.st0{fill:#054FE6;}
</style>
<path class="st0" d="M75.3,117.2c-26,0.1-47,21.1-47.1,47.1V410h-14c-3.9,0-7,2.6-7,6.5v30.7c0,12.4,5,24.3,13.8,33.1
	S41.8,494,54.2,494H440c12.4,0.1,24.4-4.8,33.2-13.6c8.8-8.8,13.8-20.7,13.8-33.1v-30.7c0-3.9-3.1-6.5-7-6.5h-14V164.3
	c-0.1-26-21.1-47-47.1-47.1H302.1v-27h42.8c3.9,0.1,7.1-3,7.2-6.8v-27c4.4-1.3,8.4-3.6,11.7-6.8c10.4-10.4,10.4-27.2,0-37.5
	c-10.4-10.4-27.2-10.4-37.5,0c-10.4,10.4-10.4,27.2,0,37.5c3.2,3.4,7.3,5.8,11.8,6.8v19.8h-42.9c-3.9,0.1-7,3.2-7.1,7.1v33.8h-34V52
	c12.8-3.5,21-15.9,19.3-29.1c-1.8-13.1-13-23-26.3-23s-24.5,9.8-26.2,23c-1.8,13.1,6.5,25.6,19.3,29.1v65.1h-36V83.3
	c-0.1-3.9-3.3-7.1-7.3-7.1h-40.7V56.4c4.5-1.1,8.6-3.4,11.8-6.8c10.3-10.3,10.4-27.1,0-37.5l0,0c-7.6-7.6-19-9.8-28.9-5.7
	s-16.4,13.8-16.4,24.5c0,7,2.7,13.8,7.7,18.7c3.3,3.2,7.3,5.5,11.7,6.8v26.9c0.1,3.9,3.3,6.9,7.2,6.8h40.8v27L75.3,117.2L75.3,117.2
	z M336.1,22c4.9-4.9,12.8-4.9,17.7,0c4.9,4.9,4.9,12.8,0,17.7s-12.8,4.9-17.7,0C331.2,34.8,331.2,26.9,336.1,22z M234.6,26.5
	c0-5.7,3.8-10.6,9.3-12.1s11.2,0.9,14.1,5.8c2.8,4.9,2,11.1-2,15.1c-3.6,3.6-9,4.6-13.6,2.7C237.7,36.1,234.6,31.5,234.6,26.5z
	 M136.8,30.8c0-6,4.2-11.1,10.1-12.3c5.9-1.2,11.7,2,14,7.5s0.4,11.9-4.6,15.2s-11.6,2.7-15.8-1.6C138.1,37.4,136.8,34.2,136.8,30.8
	z M473,447.3c0,8.7-3.5,17.1-9.7,23.2s-14.6,9.6-23.3,9.5H54.2c-8.7,0.1-17.1-3.4-23.3-9.5s-9.7-14.5-9.7-23.2V424h164.2l6,6.2
	c8.9,9.5,21.5,14.9,34.5,14.8h42.3c13.1,0.1,25.6-5.2,34.5-14.8l6-6.2H473V447.3z M452,164.3V410H305.8c-1.9-0.1-3.8,0.6-5.1,2
	l-8.1,8.6c-6.3,6.7-15.1,10.5-24.3,10.4H226c-9.2,0-18-3.8-24.3-10.5l-8.1-8.5c-1.4-1.4-3.2-2.1-5.1-2H42.2V164.3
	c0.1-18.3,14.9-33,33.1-33.1h343.5C437.1,131.2,451.9,146,452,164.3z"/>
<path class="st0" d="M427,166.2c0-3.9-3.1-7-7-7H75.2c-3.9,0-7,3.1-7,7v214.9c0,3.9,3.1,7,7,7H420c3.9,0,7-3.1,7-7V166.2z
	 M82.2,173.2H412v201.9H82.2V173.2z"/>
<path class="st0" d="M328.7,257l-12.7-1.2c-1.5-5-3.5-9.9-6.1-14.5l8-9.7c2.3-2.8,2.1-6.8-0.4-9.4L301,205.5
	c-2.5-2.6-6.6-2.8-9.4-0.5l-9.7,8.1c-4.6-2.5-9.4-4.6-14.5-6.1l-1.2-12.6c-0.3-3.6-3.4-6.3-7-6.3h-23.7c-3.6,0-6.6,2.7-7,6.3
	l-1.2,12.6c-5,1.5-9.9,3.5-14.5,6.1l-9.7-8c-2.8-2.3-6.9-2.1-9.4,0.4L177,222.2c-2.6,2.5-2.7,6.6-0.4,9.4l8.1,9.7
	c-2.5,4.6-4.6,9.4-6.1,14.4l-12.8,1.2c-3.6,0.3-6.4,3.3-6.4,7v23.7c0,3.6,2.8,6.6,6.4,7l12.7,1.2c1.5,5,3.5,9.9,6.1,14.5l-8,9.7
	c-2.3,2.8-2.1,6.9,0.4,9.4l16.7,16.7c2.6,2.5,6.6,2.7,9.4,0.4l9.7-8.1c4.6,2.5,9.4,4.6,14.4,6.1l1.2,12.4c0.4,3.5,3.4,6.2,7,6.1
	h23.7c3.6,0.1,6.6-2.5,7-6.1l1.2-12.5c5-1.5,9.9-3.5,14.5-6l9.7,8.1c2.8,2.3,6.8,2.1,9.4-0.4l16.7-16.7c2.6-2.6,2.7-6.6,0.4-9.4
	l-8.1-9.7c2.5-4.6,4.6-9.4,6.1-14.4l12.6-1.2c3.6-0.3,6.4-3.3,6.4-7V264C335,260.3,332.3,257.3,328.7,257z M321.1,281.3l-11.1,1.1
	c-3,0.3-5.5,2.5-6.2,5.4c-1.5,6.9-4.3,13.4-8.2,19.3c-1.7,2.6-1.5,5.9,0.5,8.3l7.1,8.6l-7.7,7.7l-8.6-7.2c-2.4-2-5.8-2.2-8.3-0.4
	c-5.8,3.9-12.4,6.6-19.2,8.1c-2.9,0.5-5.2,3-5.5,5.9l-1.1,11h-11l-1.1-11c-0.3-3-2.5-5.5-5.5-6c-6.9-1.5-13.4-4.2-19.3-8.1
	c-2.6-1.6-5.9-1.4-8.2,0.5l-8.6,7.2l-7.7-7.7l7.2-8.6c2-2.4,2.1-5.8,0.4-8.3c-3.9-5.8-6.6-12.3-8.1-19.2c-0.7-3-3.2-5.2-6.2-5.5
	l-11.3-1.1v-11l11.3-1.1c3-0.3,5.5-2.5,6.2-5.4c1.5-6.9,4.3-13.4,8.2-19.3c1.7-2.6,1.5-5.9-0.5-8.3l-7.1-8.6l7.7-7.7l8.6,7.2
	c2.4,2,5.8,2.2,8.3,0.5c5.8-3.9,12.4-6.6,19.2-8.1c3-0.6,5.2-3.1,5.5-6.1l1.1-11.2h11l1.1,11.2c0.3,3,2.5,5.5,5.5,6.1
	c6.9,1.5,13.4,4.3,19.3,8.1c2.6,1.6,5.9,1.4,8.2-0.5l8.6-7.1l7.6,7.6l-7.2,8.7c-2,2.4-2.1,5.8-0.4,8.3c3.9,5.8,6.6,12.3,8.1,19.2
	c0.7,3,3.2,5.2,6.2,5.5l11.3,1.1L321.1,281.3L321.1,281.3z"/>
<path class="st0" d="M247.1,226.4c-27.3,0-49.3,22.1-49.3,49.4c0,27.2,22.1,49.3,49.4,49.3c27.2,0,49.3-22.1,49.3-49.4
	C296.5,248.5,274.4,226.4,247.1,226.4z M247.1,311.1c-19.5,0-35.3-15.9-35.3-35.4s15.9-35.3,35.4-35.3s35.3,15.8,35.3,35.4
	C282.5,295.3,266.7,311.1,247.1,311.1z"/>
</svg>
