<?xml version="1.0" encoding="utf-8"?>
<!-- Generator: Adobe Illustrator 22.1.0, SVG Export Plug-In . SVG Version: 6.00 Build 0)  -->
<svg version="1.1" id="Layer_1" xmlns="http://www.w3.org/2000/svg" xmlns:xlink="http://www.w3.org/1999/xlink" x="0px" y="0px"
	 viewBox="0 0 2560 1600" style="enable-background:new 0 0 2560 1600;" xml:space="preserve">
<style type="text/css">
	.st0{fill:none;}
	.st1{fill:url(#SVGID_1_);}
	.st2{fill:url(#SVGID_2_);}
	.st3{fill:url(#SVGID_3_);}
	.st4{fill:url(#SVGID_4_);}
	.st5{fill:url(#SVGID_5_);}
</style>
<g>
	<path class="st0" d="M2566,1584c0,0-23.8-66.2-382-244c-513.8-254.9-578.9-131.6-1164-210C461.2,1055.1,304.6,1012.6-6,713.5V518.4
		l2572,52.5V1584z"/>
	
		<linearGradient id="SVGID_1_" gradientUnits="userSpaceOnUse" x1="-1.2" y1="1641.9944" x2="2586" y2="1641.9944" gradientTransform="matrix(1 0 0 -1 0 2432)">
		<stop  offset="0" style="stop-color:#103AC6"/>
		<stop  offset="1" style="stop-color:#075BFF"/>
	</linearGradient>
	<path class="st1" d="M2586,1600V-21.3L0-27.1L-1.2,1600c0,0,478.2,16,1300.2,0C1922.6,1607.1,1946,1611.1,2586,1600z"/>
	
		<linearGradient id="SVGID_2_" gradientUnits="userSpaceOnUse" x1="2534.5686" y1="1142.5258" x2="1903.8407" y2="1142.5258" gradientTransform="matrix(1 0 0 -1 0 2432)">
		<stop  offset="0" style="stop-color:#103AC6"/>
		<stop  offset="1" style="stop-color:#075BFF"/>
	</linearGradient>
	<path class="st2" d="M2524.4,1470.5l-1.8-502.7c0,0-190.1-32.8-269.9,33.3L2089.9,1130c0,0-191.3,242.5-186,470
		c0,0,485.4,38.1,510.4,7.1C2584,1396.8,2524.4,1470.5,2524.4,1470.5z"/>
	
		<linearGradient id="SVGID_3_" gradientUnits="userSpaceOnUse" x1="-101.4535" y1="1646.5426" x2="505.4995" y2="1237.1494" gradientTransform="matrix(1 0 0 -1 0 2432)">
		<stop  offset="0" style="stop-color:#103AC6"/>
		<stop  offset="1" style="stop-color:#075BFF"/>
	</linearGradient>
	<path class="st3" d="M0,1550l618-693c72-74.5,70-193.3-4.5-265.3l-56.6-54.8c-74.5-72-193.3-70-265.3,4.5L-3.5,830.9
		c0,0-2.5,167.1,3.5,391.1C0,1550,0,1550,0,1550z"/>
	
		<linearGradient id="SVGID_4_" gradientUnits="userSpaceOnUse" x1="1736.2745" y1="709.7292" x2="1823.8378" y2="1422.8787" gradientTransform="matrix(-4.489659e-11 1 -1 -4.489659e-11 3011.1089 -579.109)">
		<stop  offset="0" style="stop-color:#103AC6"/>
		<stop  offset="1" style="stop-color:#075BFF"/>
	</linearGradient>
	<path class="st4" d="M2067.9,1600c43.3-43.3,401.6-477.1,401.6-477.1c73.3-73.3,73.3-192,0-265.3l-55.7-55.7
		c-73.3-73.3-192-73.3-265.3,0l-372.8,372.8c-7.2,7.2-428,417.4-433.8,425.3H2067.9z"/>
	
		<linearGradient id="SVGID_5_" gradientUnits="userSpaceOnUse" x1="1227.1857" y1="2077.644" x2="2004.3901" y2="2300.5054" gradientTransform="matrix(1 0 0 -1 0 2432)">
		<stop  offset="0" style="stop-color:#103AC6"/>
		<stop  offset="1" style="stop-color:#075BFF"/>
	</linearGradient>
	<path class="st5" d="M1310,287.9c-40.7,50.6-41.1,128.5,5.8,175.4l38.2,38.2c50.3,50.3,131.8,50.3,182.1,0
		c0,0,383.5-427.9,457.1-501.5h-411L1310,287.9z"/>
</g>
</svg>
